<svg version="1.1" id="Layer_1" xmlns="http://www.w3.org/2000/svg" xmlns:xlink="http://www.w3.org/1999/xlink" x="0px" y="0px"
	 width="100%" viewBox="0 0 500 563" enable-background="new 0 0 500 563" xml:space="preserve">
<path fill="#3BEDE7" opacity="1.000000" stroke="none" 
	d="
M1.000000,302.000000 
	C1.000000,299.958344 1.000000,297.916656 1.291382,295.722290 
	C3.965903,293.002563 6.418149,290.495453 8.712786,287.851593 
	C11.019351,285.194000 11.558017,282.265503 10.446450,278.739960 
	C9.528008,275.826965 8.882964,272.606445 9.107889,269.596222 
	C9.753838,260.951385 9.379716,251.934036 15.959053,244.861130 
	C16.897602,243.852158 17.595802,242.447845 17.959757,241.105713 
	C19.599157,235.060150 20.595495,228.794342 22.738628,222.943039 
	C25.335249,215.853607 29.330214,209.271439 31.860744,202.163818 
	C35.812706,191.063828 43.939373,182.072174 46.795681,170.246857 
	C47.748432,166.302368 48.226925,163.106522 47.190712,159.553619 
	C43.545692,147.055786 47.306358,134.200851 63.090332,132.100601 
	C71.001221,131.047974 75.635185,126.257683 80.284767,120.523666 
	C85.376457,114.244423 91.209068,108.556801 96.840973,102.729446 
	C98.995926,100.499695 101.581474,98.691887 103.810135,96.526443 
	C109.695549,90.807976 114.902664,84.148529 121.542885,79.539215 
	C125.646004,76.691048 127.938934,73.472092 129.844025,69.403557 
	C131.254578,66.391129 133.073303,63.435604 133.738052,60.251751 
	C134.245605,57.820850 137.854263,55.309067 134.284180,52.392654 
	C133.971756,52.137436 134.768723,49.976185 135.533752,49.145313 
	C136.032150,48.604019 137.596497,48.484623 138.345901,48.856388 
	C139.695389,49.525848 140.791565,50.705940 141.167175,51.008045 
	C146.060043,51.008045 150.656860,49.955509 154.460266,51.244370 
	C160.835449,53.404732 166.276047,52.096668 172.215088,50.053864 
	C181.963486,46.700787 191.789017,42.602371 201.872971,41.513996 
	C209.377777,40.703987 214.494400,34.621700 222.670532,35.489986 
	C231.507767,36.428478 240.653870,33.949715 249.635117,34.173141 
	C260.238129,34.436905 270.792175,36.266575 281.398041,36.925369 
	C292.804688,37.633915 304.093414,38.679485 315.123383,41.929157 
	C326.950623,45.413727 339.067139,48.034103 350.662231,52.146034 
	C357.989441,54.744469 364.631714,59.313538 371.513062,63.121861 
	C385.836792,71.049019 399.870941,79.172081 411.347473,91.390732 
	C417.237183,97.661293 425.642944,101.490974 432.234253,107.205109 
	C437.389648,111.674477 442.214172,116.886292 445.907990,122.594994 
	C451.234039,130.826370 455.300934,139.863297 460.085083,148.456284 
	C471.441223,168.853516 482.510590,198.501556 486.977692,222.104706 
	C488.456329,229.917435 489.167694,237.888992 489.943115,245.815994 
	C490.401184,250.498871 496.390503,259.710083 501.000000,262.000000 
	C501.000000,267.354919 501.000000,272.709869 500.722443,278.236938 
	C497.307770,281.015533 494.212219,283.486664 493.415405,287.991608 
	C491.443237,299.142029 489.115814,310.229401 487.101501,321.372894 
	C486.912384,322.419098 487.629181,323.994507 488.446136,324.787964 
	C490.820435,327.093933 493.459595,329.127167 496.109467,331.364136 
	C490.902466,336.572418 488.024231,331.123749 484.340729,331.125214 
	C482.879028,336.165863 481.914703,341.483063 479.823364,346.312225 
	C474.554047,358.479706 468.673981,370.381042 463.234589,382.477112 
	C458.676208,392.613953 454.427155,402.642517 445.522125,410.273010 
	C436.367676,418.117279 428.066803,427.013367 419.890045,435.906708 
	C417.631378,438.363281 414.169403,440.850586 415.737732,445.924652 
	C416.766815,449.253967 413.612335,449.359344 410.782898,448.414825 
	C409.358521,447.939392 407.222656,447.848969 406.065613,448.598602 
	C397.685730,454.027954 389.900208,460.554657 381.068634,465.047791 
	C374.441986,468.419128 371.585327,477.555389 361.593353,476.251404 
	C357.408478,475.705261 352.635529,480.013824 348.067383,481.969055 
	C342.173828,484.491608 336.024597,486.492706 330.344818,489.416473 
	C325.102783,492.114899 320.266418,495.636505 315.410278,499.023376 
	C314.277832,499.813202 313.437836,501.443878 313.113708,502.838806 
	C312.850250,503.972595 313.887451,505.365051 313.766449,506.585114 
	C313.554901,508.718170 312.896820,510.806915 312.425842,512.914246 
	C310.375153,511.832703 308.009644,511.088989 306.372803,509.563446 
	C305.050415,508.330963 305.038361,505.619751 303.674469,504.521210 
	C301.471405,502.746826 298.451111,500.415039 296.107300,500.736298 
	C292.053864,501.291748 288.254242,503.699036 284.211548,505.386475 
	C284.423248,507.040375 285.182190,509.359863 284.869293,511.524384 
	C284.546173,513.759399 283.679169,517.151184 282.169678,517.726440 
	C278.858704,518.988159 275.262054,517.057739 274.492767,513.660950 
	C273.487091,509.220337 271.108368,510.220093 268.522095,511.120239 
	C265.257477,512.256409 262.214355,513.402222 260.395264,508.985626 
	C260.058044,508.166931 259.051270,507.317078 258.185913,507.070923 
	C250.799057,504.969971 243.473785,502.351227 235.929688,501.194153 
	C229.177856,500.158661 222.270309,501.165100 217.619247,505.717987 
	C214.546829,503.987213 212.114853,502.703979 209.777145,501.267303 
	C208.398788,500.420197 206.286926,499.521118 206.025909,498.315979 
	C204.866562,492.963043 200.263367,494.167633 196.911346,493.020294 
	C195.853119,492.658112 194.722107,492.508514 193.434204,492.043396 
	C192.907547,491.678467 192.571091,491.531799 192.234634,491.385162 
	C192.462540,491.948029 192.690445,492.510925 192.959671,493.443054 
	C193.687042,495.391052 194.373108,496.969818 194.863708,498.098755 
	C192.691971,499.836365 190.367218,500.996338 189.137390,502.873596 
	C187.859665,504.824066 187.640732,507.468109 186.841156,510.212585 
	C187.431610,510.549591 188.660034,511.306305 189.938675,511.965668 
	C191.378647,512.708191 192.924011,513.260437 194.317093,514.076965 
	C197.375824,515.869873 198.284866,519.972656 195.888702,522.498413 
	C193.307358,525.219299 190.499084,527.825439 187.424988,529.955017 
	C182.714233,533.218201 178.063354,530.781372 178.076965,525.086487 
	C178.085632,521.464233 178.834564,517.843689 179.193298,514.728271 
	C176.825043,513.887756 173.523895,513.700623 172.350601,512.024231 
	C171.165436,510.330841 172.089401,507.161316 172.089401,504.702026 
	C169.697433,503.969330 167.272430,503.226532 163.949295,502.208618 
	C166.354248,500.900269 167.605865,500.219360 168.653931,499.649200 
	C166.127045,494.591614 164.052475,489.378967 161.011810,484.809143 
	C159.532974,482.586578 156.392868,480.559418 153.755219,480.180389 
	C143.970993,478.774323 136.217072,473.552216 129.138809,467.458344 
	C119.134613,458.845428 109.692055,449.576721 100.084854,440.508423 
	C97.679985,438.238403 95.274902,437.430115 92.188263,438.997833 
	C89.789734,440.216064 87.283447,441.222168 86.113655,441.745758 
	C83.782150,440.023224 82.377037,438.099670 81.054848,438.155121 
	C73.680588,438.464172 66.326408,439.252380 58.341766,439.929688 
	C60.736816,444.735077 59.609673,445.991669 55.352989,446.157288 
	C51.303665,446.314850 47.304619,447.764404 43.503540,448.597687 
	C43.098606,447.356476 43.006474,445.414642 42.280949,445.138824 
	C39.221882,443.975861 39.706696,442.264618 40.971497,440.164948 
	C41.931484,438.571259 42.881275,436.971375 43.251747,436.351379 
	C36.064060,427.814423 29.253139,419.724945 22.866116,412.138977 
	C7.816780,419.615784 7.816780,419.615784 5.466885,417.791687 
	C9.716017,414.369232 13.850057,411.039490 17.689306,407.947174 
	C15.895663,404.123077 14.275512,400.668854 13.052606,398.061584 
	C10.940479,398.061584 9.260857,398.061584 7.581234,398.061584 
	C7.697595,396.556854 7.398565,393.951569 7.997549,393.725494 
	C11.956699,392.231140 10.862720,389.048218 11.004420,386.236145 
	C11.070436,384.926056 10.673829,383.212463 11.347927,382.374146 
	C16.114004,376.447083 21.094696,370.692108 26.040787,364.911255 
	C26.399073,364.492493 26.990900,364.203308 27.530582,364.020569 
	C35.461071,361.335632 37.911026,353.452881 33.241810,346.535248 
	C32.435009,345.339935 32.380520,342.358490 33.248104,341.527435 
	C37.550365,337.406250 37.489876,332.837952 36.302074,327.507080 
	C34.823730,320.872223 34.174095,314.057281 32.965187,307.356415 
	C31.955936,301.762207 30.740665,296.133759 24.829197,293.389374 
	C22.393774,292.258667 19.830902,291.402557 17.175959,290.362762 
	C15.578175,292.636383 13.810065,294.954468 12.253265,297.406677 
	C8.381075,303.506134 7.600821,303.866394 1.000000,302.000000 
M114.280151,412.800781 
	C117.033958,414.881927 119.656052,417.171631 122.564270,419.008270 
	C135.467957,427.157379 144.793930,440.101410 159.417343,446.018585 
	C167.275391,449.198273 174.564590,453.814972 182.476379,456.819733 
	C187.850845,458.860931 194.167252,458.466309 199.483139,460.602509 
	C203.313004,462.141541 205.681885,462.644012 207.575668,459.725250 
	C210.968857,460.170105 213.957855,460.726318 216.969727,460.912781 
	C220.292694,461.118530 223.639740,460.904327 226.970337,461.030457 
	C228.874680,461.102631 231.734604,462.382690 232.487381,461.568542 
	C234.949326,458.905579 237.336487,459.242249 240.358307,459.918030 
	C244.155319,460.767181 248.078873,461.075897 251.960739,461.499390 
	C252.775421,461.588257 253.945374,461.447510 254.442123,460.926605 
	C257.412598,457.811981 259.782593,458.201233 261.425140,461.459900 
	C264.294403,461.459900 266.787750,461.459900 269.517029,461.459900 
	C270.643524,459.288971 271.973083,456.633362 274.566559,461.008240 
	C274.978058,461.702393 275.628906,462.344971 276.319214,462.764252 
	C277.635864,463.563995 279.602814,465.113678 280.328766,464.689606 
	C281.881195,463.782837 282.735382,461.745697 284.023468,460.303650 
	C285.374359,458.791199 286.898224,457.433197 288.346466,456.007660 
	C289.563751,457.496552 291.602936,458.861359 291.849823,460.496735 
	C292.719147,466.254669 295.435974,468.250977 301.097839,466.473694 
	C306.473816,464.786133 311.754730,462.695862 317.229919,461.455627 
	C321.637817,460.457153 326.590149,461.336456 330.738007,459.831299 
	C338.094696,457.161804 345.495087,454.042877 352.035522,449.811157 
	C366.031433,440.755707 380.140747,431.661011 392.982880,421.098236 
	C405.399872,410.885132 414.776520,397.713013 423.140656,383.795868 
	C435.624634,363.023651 445.482422,341.244080 451.581757,317.792694 
	C455.153961,304.057892 458.464691,290.259277 457.981140,275.907166 
	C457.759064,269.316162 457.610382,262.703308 456.931305,256.151917 
	C456.059845,247.744720 455.138916,239.294556 453.402893,231.038803 
	C451.718414,223.028137 448.704285,215.304718 446.802002,207.329254 
	C445.709351,202.748077 443.952759,199.840103 439.242950,197.852203 
	C431.930145,194.765579 427.277496,189.177475 429.025055,180.386017 
	C429.621826,177.383804 430.638672,174.460526 431.149689,171.447952 
	C431.379517,170.092804 431.277802,168.329208 430.578430,167.224533 
	C425.130981,158.619919 419.974335,149.766937 413.784302,141.716141 
	C408.440338,134.765778 402.140778,128.465408 395.724030,122.453690 
	C391.257263,118.268875 385.737976,115.232391 380.934570,111.376839 
	C370.973755,103.381630 360.043121,97.860863 347.078766,97.001808 
	C344.844330,96.853752 342.441406,95.801338 340.428650,96.338013 
	C330.500793,98.985146 322.593445,94.164879 315.030853,89.301788 
	C308.887970,85.351639 303.513672,80.180779 297.936493,75.390656 
	C296.072388,73.789612 293.487274,71.836540 293.230194,69.792976 
	C292.609711,64.860954 289.710602,65.278030 286.990356,66.691139 
	C283.867218,68.313599 281.040802,70.686142 278.452148,73.122437 
	C272.539215,78.687263 268.053955,78.762283 262.398743,72.839821 
	C260.825745,71.192490 259.204865,69.412659 258.257446,67.388657 
	C256.888245,64.463493 254.805466,63.747135 251.896835,63.970493 
	C249.909256,64.123123 247.896194,63.914982 245.902054,64.016449 
	C241.015717,64.265076 236.774933,65.478256 234.076797,70.267433 
	C232.575623,72.932037 230.066574,75.016823 228.096634,77.432144 
	C225.091705,81.116470 221.834259,82.825890 217.327332,78.260437 
	C216.048248,81.133430 215.223190,83.576752 213.936310,85.746109 
	C211.716751,89.487770 209.455185,93.260345 206.708084,96.606903 
	C205.541931,98.027519 202.238113,97.901894 201.400009,99.346100 
	C198.266022,104.746674 194.703705,110.268936 193.357758,116.211189 
	C192.406250,120.411942 191.567688,122.862404 187.307327,123.172913 
	C186.777023,131.004822 190.663696,137.249054 197.945816,140.013260 
	C198.645447,135.800415 199.362473,131.682022 200.007889,127.552437 
	C201.146988,120.263954 202.295425,118.674622 207.225342,118.440445 
	C205.301834,125.386490 203.475403,132.198700 201.471909,138.958466 
	C201.203964,139.862518 200.135757,140.636856 199.276245,141.240936 
	C193.100281,145.581528 186.451248,142.384277 181.464890,133.807953 
	C176.232437,124.808350 171.288284,122.639618 161.242020,125.840591 
	C160.074448,126.212608 158.645172,125.674606 157.346176,125.738930 
	C152.873749,125.960403 148.394302,126.148285 143.939743,126.578796 
	C141.555023,126.809273 139.188324,128.027802 136.861008,127.904404 
	C129.020432,127.488693 121.192757,126.755463 113.376892,125.975883 
	C108.704521,125.509834 105.620056,128.050339 106.002983,132.031021 
	C106.787338,140.184677 107.825462,148.356110 107.890251,156.527100 
	C107.992790,169.460434 102.991982,179.284042 89.176193,184.384232 
	C81.118271,187.358871 75.134140,192.402786 71.634674,200.580963 
	C69.620529,205.287979 66.526787,209.578751 63.605801,213.842285 
	C57.823696,222.281998 54.351448,231.819397 53.272755,241.670441 
	C52.080612,252.557556 52.964439,263.675934 53.006985,274.693390 
	C53.071560,291.415771 54.793205,307.904083 59.983242,323.910370 
	C62.265038,330.947510 63.604900,338.409119 66.755936,345.018402 
	C71.887062,355.780884 77.737877,366.262726 84.074181,376.368164 
	C89.045128,384.296051 95.209198,391.475830 100.964577,399.810120 
	C100.191696,404.603882 102.739975,407.249451 106.818977,408.959656 
	C109.238426,409.974091 111.616402,411.087433 114.280151,412.800781 
z"/>
<path fill="#000000" opacity="1.000000" stroke="none" 
	d="
M1.000000,302.468658 
	C7.600821,303.866394 8.381075,303.506134 12.253265,297.406677 
	C13.810065,294.954468 15.578175,292.636383 17.175959,290.362762 
	C19.830902,291.402557 22.393774,292.258667 24.829197,293.389374 
	C30.740665,296.133759 31.955936,301.762207 32.965187,307.356415 
	C34.174095,314.057281 34.823730,320.872223 36.302074,327.507080 
	C37.489876,332.837952 37.550365,337.406250 33.248104,341.527435 
	C32.380520,342.358490 32.435009,345.339935 33.241810,346.535248 
	C37.911026,353.452881 35.461071,361.335632 27.530582,364.020569 
	C26.990900,364.203308 26.399073,364.492493 26.040787,364.911255 
	C21.094696,370.692108 16.114004,376.447083 11.347927,382.374146 
	C10.673829,383.212463 11.070436,384.926056 11.004420,386.236145 
	C10.862720,389.048218 11.956699,392.231140 7.997549,393.725494 
	C7.398565,393.951569 7.697595,396.556854 7.581234,398.061584 
	C9.260857,398.061584 10.940479,398.061584 13.052606,398.061584 
	C14.275512,400.668854 15.895663,404.123077 17.689306,407.947174 
	C13.850057,411.039490 9.716017,414.369232 5.466885,417.791687 
	C7.816780,419.615784 7.816780,419.615784 22.866116,412.138977 
	C29.253139,419.724945 36.064060,427.814423 43.251747,436.351379 
	C42.881275,436.971375 41.931484,438.571259 40.971497,440.164948 
	C39.706696,442.264618 39.221882,443.975861 42.280949,445.138824 
	C43.006474,445.414642 43.098606,447.356476 43.503540,448.597687 
	C47.304619,447.764404 51.303665,446.314850 55.352989,446.157288 
	C59.609673,445.991669 60.736816,444.735077 58.341766,439.929688 
	C66.326408,439.252380 73.680588,438.464172 81.054848,438.155121 
	C82.377037,438.099670 83.782150,440.023224 86.113655,441.745758 
	C87.283447,441.222168 89.789734,440.216064 92.188263,438.997833 
	C95.274902,437.430115 97.679985,438.238403 100.084854,440.508423 
	C109.692055,449.576721 119.134613,458.845428 129.138809,467.458344 
	C136.217072,473.552216 143.970993,478.774323 153.755219,480.180389 
	C156.392868,480.559418 159.532974,482.586578 161.011810,484.809143 
	C164.052475,489.378967 166.127045,494.591614 168.653931,499.649200 
	C167.605865,500.219360 166.354248,500.900269 163.949295,502.208618 
	C167.272430,503.226532 169.697433,503.969330 172.089401,504.702026 
	C172.089401,507.161316 171.165436,510.330841 172.350601,512.024231 
	C173.523895,513.700623 176.825043,513.887756 179.193298,514.728271 
	C178.834564,517.843689 178.085632,521.464233 178.076965,525.086487 
	C178.063354,530.781372 182.714233,533.218201 187.424988,529.955017 
	C190.499084,527.825439 193.307358,525.219299 195.888702,522.498413 
	C198.284866,519.972656 197.375824,515.869873 194.317093,514.076965 
	C192.924011,513.260437 191.378647,512.708191 189.938675,511.965668 
	C188.660034,511.306305 187.431610,510.549591 186.841156,510.212585 
	C187.640732,507.468109 187.859665,504.824066 189.137390,502.873596 
	C190.367218,500.996338 192.691971,499.836365 194.863708,498.098755 
	C194.373108,496.969818 193.687042,495.391052 193.146271,493.248779 
	C193.402496,492.544037 193.513458,492.402863 193.624405,492.261658 
	C194.722107,492.508514 195.853119,492.658112 196.911346,493.020294 
	C200.263367,494.167633 204.866562,492.963043 206.025909,498.315979 
	C206.286926,499.521118 208.398788,500.420197 209.777145,501.267303 
	C212.114853,502.703979 214.546829,503.987213 217.619247,505.717987 
	C222.270309,501.165100 229.177856,500.158661 235.929688,501.194153 
	C243.473785,502.351227 250.799057,504.969971 258.185913,507.070923 
	C259.051270,507.317078 260.058044,508.166931 260.395264,508.985626 
	C262.214355,513.402222 265.257477,512.256409 268.522095,511.120239 
	C271.108368,510.220093 273.487091,509.220337 274.492767,513.660950 
	C275.262054,517.057739 278.858704,518.988159 282.169678,517.726440 
	C283.679169,517.151184 284.546173,513.759399 284.869293,511.524384 
	C285.182190,509.359863 284.423248,507.040375 284.211548,505.386475 
	C288.254242,503.699036 292.053864,501.291748 296.107300,500.736298 
	C298.451111,500.415039 301.471405,502.746826 303.674469,504.521210 
	C305.038361,505.619751 305.050415,508.330963 306.372803,509.563446 
	C308.009644,511.088989 310.375153,511.832703 312.425842,512.914246 
	C312.896820,510.806915 313.554901,508.718170 313.766449,506.585114 
	C313.887451,505.365051 312.850250,503.972595 313.113708,502.838806 
	C313.437836,501.443878 314.277832,499.813202 315.410278,499.023376 
	C320.266418,495.636505 325.102783,492.114899 330.344818,489.416473 
	C336.024597,486.492706 342.173828,484.491608 348.067383,481.969055 
	C352.635529,480.013824 357.408478,475.705261 361.593353,476.251404 
	C371.585327,477.555389 374.441986,468.419128 381.068634,465.047791 
	C389.900208,460.554657 397.685730,454.027954 406.065613,448.598602 
	C407.222656,447.848969 409.358521,447.939392 410.782898,448.414825 
	C413.612335,449.359344 416.766815,449.253967 415.737732,445.924652 
	C414.169403,440.850586 417.631378,438.363281 419.890045,435.906708 
	C428.066803,427.013367 436.367676,418.117279 445.522125,410.273010 
	C454.427155,402.642517 458.676208,392.613953 463.234589,382.477112 
	C468.673981,370.381042 474.554047,358.479706 479.823364,346.312225 
	C481.914703,341.483063 482.879028,336.165863 484.340729,331.125214 
	C488.024231,331.123749 490.902466,336.572418 496.109467,331.364136 
	C493.459595,329.127167 490.820435,327.093933 488.446136,324.787964 
	C487.629181,323.994507 486.912384,322.419098 487.101501,321.372894 
	C489.115814,310.229401 491.443237,299.142029 493.415405,287.991608 
	C494.212219,283.486664 497.307770,281.015533 500.722443,278.704559 
	C501.000000,373.960327 501.000000,468.920654 501.000000,563.940491 
	C334.442627,563.940491 167.885208,563.940491 1.000000,563.940491 
	C1.000000,476.979370 1.000000,389.958344 1.000000,302.468658 
z"/>
<path fill="#000000" opacity="1.000000" stroke="none" 
	d="
M501.000000,261.531342 
	C496.390503,259.710083 490.401184,250.498871 489.943115,245.815994 
	C489.167694,237.888992 488.456329,229.917435 486.977692,222.104706 
	C482.510590,198.501556 471.441223,168.853516 460.085083,148.456284 
	C455.300934,139.863297 451.234039,130.826370 445.907990,122.594994 
	C442.214172,116.886292 437.389648,111.674477 432.234253,107.205109 
	C425.642944,101.490974 417.237183,97.661293 411.347473,91.390732 
	C399.870941,79.172081 385.836792,71.049019 371.513062,63.121861 
	C364.631714,59.313538 357.989441,54.744469 350.662231,52.146034 
	C339.067139,48.034103 326.950623,45.413727 315.123383,41.929157 
	C304.093414,38.679485 292.804688,37.633915 281.398041,36.925369 
	C270.792175,36.266575 260.238129,34.436905 249.635117,34.173141 
	C240.653870,33.949715 231.507767,36.428478 222.670532,35.489986 
	C214.494400,34.621700 209.377777,40.703987 201.872971,41.513996 
	C191.789017,42.602371 181.963486,46.700787 172.215088,50.053864 
	C166.276047,52.096668 160.835449,53.404732 154.460266,51.244370 
	C150.656860,49.955509 146.060043,51.008045 141.167175,51.008045 
	C140.791565,50.705940 139.695389,49.525848 138.345901,48.856388 
	C137.596497,48.484623 136.032150,48.604019 135.533752,49.145313 
	C134.768723,49.976185 133.971756,52.137436 134.284180,52.392654 
	C137.854263,55.309067 134.245605,57.820850 133.738052,60.251751 
	C133.073303,63.435604 131.254578,66.391129 129.844025,69.403557 
	C127.938934,73.472092 125.646004,76.691048 121.542885,79.539215 
	C114.902664,84.148529 109.695549,90.807976 103.810135,96.526443 
	C101.581474,98.691887 98.995926,100.499695 96.840973,102.729446 
	C91.209068,108.556801 85.376457,114.244423 80.284767,120.523666 
	C75.635185,126.257683 71.001221,131.047974 63.090332,132.100601 
	C47.306358,134.200851 43.545692,147.055786 47.190712,159.553619 
	C48.226925,163.106522 47.748432,166.302368 46.795681,170.246857 
	C43.939373,182.072174 35.812706,191.063828 31.860744,202.163818 
	C29.330214,209.271439 25.335249,215.853607 22.738628,222.943039 
	C20.595495,228.794342 19.599157,235.060150 17.959757,241.105713 
	C17.595802,242.447845 16.897602,243.852158 15.959053,244.861130 
	C9.379716,251.934036 9.753838,260.951385 9.107889,269.596222 
	C8.882964,272.606445 9.528008,275.826965 10.446450,278.739960 
	C11.558017,282.265503 11.019351,285.194000 8.712786,287.851593 
	C6.418149,290.495453 3.965903,293.002563 1.291382,295.284790 
	C1.000000,197.040619 1.000000,99.081230 1.000000,1.060921 
	C167.556961,1.060921 334.113953,1.060921 501.000000,1.060921 
	C501.000000,87.687286 501.000000,174.374985 501.000000,261.531342 
z"/>
<path fill="#FFFFFF" opacity="1.000000" stroke="none" 
	d="
M114.013023,412.156311 
	C111.616402,411.087433 109.238426,409.974091 106.818977,408.959656 
	C102.739975,407.249451 100.191696,404.603882 100.976952,398.933472 
	C101.326363,388.972046 101.667267,379.887390 101.999352,370.802399 
	C102.337502,361.551300 102.669258,352.299988 102.999603,343.048584 
	C103.335892,333.630798 103.669365,324.212921 103.999786,314.794891 
	C104.336052,305.210449 104.663330,295.625702 105.001198,286.041290 
	C105.665184,267.205353 106.330132,248.369446 107.002068,229.533813 
	C107.326164,220.448853 107.716858,211.365982 107.988319,202.279510 
	C108.369209,189.530197 108.929245,176.777283 108.875153,164.028198 
	C108.852608,158.715607 111.072105,155.706818 115.824196,155.083099 
	C128.092728,153.472794 140.402771,152.072403 152.737396,151.122437 
	C157.932190,150.722336 163.229630,151.683060 168.482132,151.996277 
	C174.398697,152.349106 180.349243,152.396011 186.225311,153.085175 
	C191.491745,153.702850 196.864761,154.475784 201.829163,156.213333 
	C204.900177,157.288177 208.728928,159.755905 209.765549,162.518433 
	C217.527710,183.204056 224.659393,204.125854 232.026581,224.960251 
	C238.114868,242.177795 244.255249,259.376923 250.603088,277.232727 
	C258.212128,252.630890 265.577728,228.743332 272.992493,204.871033 
	C277.130005,191.550125 281.599274,178.325546 285.406250,164.912048 
	C286.886688,159.695816 289.731201,156.764008 294.753662,155.729004 
	C299.800293,154.689026 304.861115,153.505280 309.975006,153.048721 
	C320.285431,152.128235 330.634583,151.179718 340.970612,151.147217 
	C349.970734,151.118912 359.014008,152.013809 367.964020,153.107620 
	C374.481140,153.904083 380.953156,155.422485 387.274445,157.219864 
	C388.854095,157.669006 390.663879,160.347641 390.842102,162.152283 
	C391.554504,169.366409 391.651306,176.640594 392.003815,183.891205 
	C392.315918,190.310562 392.716583,196.725922 392.987885,203.146881 
	C393.685120,219.648422 394.291260,236.153870 395.012177,252.654343 
	C395.616791,266.493561 396.392792,280.325378 396.982666,294.165161 
	C397.714325,311.331787 398.303680,328.504486 399.016235,345.671997 
	C399.241364,351.094940 399.904999,356.507629 399.951660,361.928589 
	C400.082886,377.167999 399.997437,392.409271 399.997437,409.132904 
	C394.500244,409.989624 388.020508,410.971344 381.550507,412.013428 
	C366.557129,414.428467 351.537811,413.988892 336.601135,411.847595 
	C332.539215,411.265259 327.436829,410.264771 327.053589,404.544800 
	C326.216644,392.052917 325.667114,379.541779 325.000458,367.038483 
	C324.333801,354.535187 323.600128,342.035034 323.017975,329.527802 
	C322.280975,313.694824 321.711151,297.854126 320.980743,282.020813 
	C320.649567,274.840759 320.105225,267.670563 319.609955,259.732391 
	C313.592651,280.040283 307.792694,299.669708 301.959167,319.289124 
	C293.642242,347.260590 285.312897,375.228302 276.956329,403.187958 
	C275.719696,407.325531 274.028625,410.942352 268.705170,411.038361 
	C256.971222,411.249969 245.237137,411.970337 233.510956,411.829407 
	C229.095779,411.776398 224.818665,410.679718 223.140381,404.732147 
	C217.437241,384.520966 211.120575,364.482330 204.990036,344.392487 
	C196.525940,316.655487 188.018082,288.931824 179.098511,259.796417 
	C178.563766,262.601685 178.094742,264.073700 178.030045,265.563293 
	C177.635513,274.645203 177.321594,283.730774 177.001968,292.815857 
	C176.327576,311.984680 175.572174,331.151337 175.028061,350.323914 
	C174.557510,366.903595 174.319016,383.489990 174.007690,400.074005 
	C173.904831,405.553741 171.287811,408.862732 165.886047,409.987854 
	C160.836685,411.039551 155.802444,412.302399 150.694580,412.898285 
	C144.821503,413.583496 138.865723,414.010193 132.962646,413.865448 
	C126.635933,413.710327 120.328735,412.759735 114.013023,412.156311 
z"/>
<path fill="#000000" opacity="1.000000" stroke="none" 
	d="
M114.146591,412.478516 
	C120.328735,412.759735 126.635933,413.710327 132.962646,413.865448 
	C138.865723,414.010193 144.821503,413.583496 150.694580,412.898285 
	C155.802444,412.302399 160.836685,411.039551 165.886047,409.987854 
	C171.287811,408.862732 173.904831,405.553741 174.007690,400.074005 
	C174.319016,383.489990 174.557510,366.903595 175.028061,350.323914 
	C175.572174,331.151337 176.327576,311.984680 177.001968,292.815857 
	C177.321594,283.730774 177.635513,274.645203 178.030045,265.563293 
	C178.094742,264.073700 178.563766,262.601685 179.098511,259.796417 
	C188.018082,288.931824 196.525940,316.655487 204.990036,344.392487 
	C211.120575,364.482330 217.437241,384.520966 223.140381,404.732147 
	C224.818665,410.679718 229.095779,411.776398 233.510956,411.829407 
	C245.237137,411.970337 256.971222,411.249969 268.705170,411.038361 
	C274.028625,410.942352 275.719696,407.325531 276.956329,403.187958 
	C285.312897,375.228302 293.642242,347.260590 301.959167,319.289124 
	C307.792694,299.669708 313.592651,280.040283 319.609955,259.732391 
	C320.105225,267.670563 320.649567,274.840759 320.980743,282.020813 
	C321.711151,297.854126 322.280975,313.694824 323.017975,329.527802 
	C323.600128,342.035034 324.333801,354.535187 325.000458,367.038483 
	C325.667114,379.541779 326.216644,392.052917 327.053589,404.544800 
	C327.436829,410.264771 332.539215,411.265259 336.601135,411.847595 
	C351.537811,413.988892 366.557129,414.428467 381.550507,412.013428 
	C388.020508,410.971344 394.500244,409.989624 399.997437,409.132904 
	C399.997437,392.409271 400.082886,377.167999 399.951660,361.928589 
	C399.904999,356.507629 399.241364,351.094940 399.016235,345.671997 
	C398.303680,328.504486 397.714325,311.331787 396.982666,294.165161 
	C396.392792,280.325378 395.616791,266.493561 395.012177,252.654343 
	C394.291260,236.153870 393.685120,219.648422 392.987885,203.146881 
	C392.716583,196.725922 392.315918,190.310562 392.003815,183.891205 
	C391.651306,176.640594 391.554504,169.366409 390.842102,162.152283 
	C390.663879,160.347641 388.854095,157.669006 387.274445,157.219864 
	C380.953156,155.422485 374.481140,153.904083 367.964020,153.107620 
	C359.014008,152.013809 349.970734,151.118912 340.970612,151.147217 
	C330.634583,151.179718 320.285431,152.128235 309.975006,153.048721 
	C304.861115,153.505280 299.800293,154.689026 294.753662,155.729004 
	C289.731201,156.764008 286.886688,159.695816 285.406250,164.912048 
	C281.599274,178.325546 277.130005,191.550125 272.992493,204.871033 
	C265.577728,228.743332 258.212128,252.630890 250.603088,277.232727 
	C244.255249,259.376923 238.114868,242.177795 232.026581,224.960251 
	C224.659393,204.125854 217.527710,183.204056 209.765549,162.518433 
	C208.728928,159.755905 204.900177,157.288177 201.829163,156.213333 
	C196.864761,154.475784 191.491745,153.702850 186.225311,153.085175 
	C180.349243,152.396011 174.398697,152.349106 168.482132,151.996277 
	C163.229630,151.683060 157.932190,150.722336 152.737396,151.122437 
	C140.402771,152.072403 128.092728,153.472794 115.824196,155.083099 
	C111.072105,155.706818 108.852608,158.715607 108.875153,164.028198 
	C108.929245,176.777283 108.369209,189.530197 107.988319,202.279510 
	C107.716858,211.365982 107.326164,220.448853 107.002068,229.533813 
	C106.330132,248.369446 105.665184,267.205353 105.001198,286.041290 
	C104.663330,295.625702 104.336052,305.210449 103.999786,314.794891 
	C103.669365,324.212921 103.335892,333.630798 102.999603,343.048584 
	C102.669258,352.299988 102.337502,361.551300 101.999352,370.802399 
	C101.667267,379.887390 101.326363,388.972046 100.916267,398.522400 
	C95.209198,391.475830 89.045128,384.296051 84.074181,376.368164 
	C77.737877,366.262726 71.887062,355.780884 66.755936,345.018402 
	C63.604900,338.409119 62.265038,330.947510 59.983242,323.910370 
	C54.793205,307.904083 53.071560,291.415771 53.006985,274.693390 
	C52.964439,263.675934 52.080612,252.557556 53.272755,241.670441 
	C54.351448,231.819397 57.823696,222.281998 63.605801,213.842285 
	C66.526787,209.578751 69.620529,205.287979 71.634674,200.580963 
	C75.134140,192.402786 81.118271,187.358871 89.176193,184.384232 
	C102.991982,179.284042 107.992790,169.460434 107.890251,156.527100 
	C107.825462,148.356110 106.787338,140.184677 106.002983,132.031021 
	C105.620056,128.050339 108.704521,125.509834 113.376892,125.975883 
	C121.192757,126.755463 129.020432,127.488693 136.861008,127.904404 
	C139.188324,128.027802 141.555023,126.809273 143.939743,126.578796 
	C148.394302,126.148285 152.873749,125.960403 157.346176,125.738930 
	C158.645172,125.674606 160.074448,126.212608 161.242020,125.840591 
	C171.288284,122.639618 176.232437,124.808350 181.464890,133.807953 
	C186.451248,142.384277 193.100281,145.581528 199.276245,141.240936 
	C200.135757,140.636856 201.203964,139.862518 201.471909,138.958466 
	C203.475403,132.198700 205.301834,125.386490 207.225342,118.440445 
	C202.295425,118.674622 201.146988,120.263954 200.007889,127.552437 
	C199.362473,131.682022 198.645447,135.800415 197.945816,140.013260 
	C190.663696,137.249054 186.777023,131.004822 187.307327,123.172913 
	C191.567688,122.862404 192.406250,120.411942 193.357758,116.211189 
	C194.703705,110.268936 198.266022,104.746674 201.400009,99.346100 
	C202.238113,97.901894 205.541931,98.027519 206.708084,96.606903 
	C209.455185,93.260345 211.716751,89.487770 213.936310,85.746109 
	C215.223190,83.576752 216.048248,81.133430 217.327332,78.260437 
	C221.834259,82.825890 225.091705,81.116470 228.096634,77.432144 
	C230.066574,75.016823 232.575623,72.932037 234.076797,70.267433 
	C236.774933,65.478256 241.015717,64.265076 245.902054,64.016449 
	C247.896194,63.914982 249.909256,64.123123 251.896835,63.970493 
	C254.805466,63.747135 256.888245,64.463493 258.257446,67.388657 
	C259.204865,69.412659 260.825745,71.192490 262.398743,72.839821 
	C268.053955,78.762283 272.539215,78.687263 278.452148,73.122437 
	C281.040802,70.686142 283.867218,68.313599 286.990356,66.691139 
	C289.710602,65.278030 292.609711,64.860954 293.230194,69.792976 
	C293.487274,71.836540 296.072388,73.789612 297.936493,75.390656 
	C303.513672,80.180779 308.887970,85.351639 315.030853,89.301788 
	C322.593445,94.164879 330.500793,98.985146 340.428650,96.338013 
	C342.441406,95.801338 344.844330,96.853752 347.078766,97.001808 
	C360.043121,97.860863 370.973755,103.381630 380.934570,111.376839 
	C385.737976,115.232391 391.257263,118.268875 395.724030,122.453690 
	C402.140778,128.465408 408.440338,134.765778 413.784302,141.716141 
	C419.974335,149.766937 425.130981,158.619919 430.578430,167.224533 
	C431.277802,168.329208 431.379517,170.092804 431.149689,171.447952 
	C430.638672,174.460526 429.621826,177.383804 429.025055,180.386017 
	C427.277496,189.177475 431.930145,194.765579 439.242950,197.852203 
	C443.952759,199.840103 445.709351,202.748077 446.802002,207.329254 
	C448.704285,215.304718 451.718414,223.028137 453.402893,231.038803 
	C455.138916,239.294556 456.059845,247.744720 456.931305,256.151917 
	C457.610382,262.703308 457.759064,269.316162 457.981140,275.907166 
	C458.464691,290.259277 455.153961,304.057892 451.581757,317.792694 
	C445.482422,341.244080 435.624634,363.023651 423.140656,383.795868 
	C414.776520,397.713013 405.399872,410.885132 392.982880,421.098236 
	C380.140747,431.661011 366.031433,440.755707 352.035522,449.811157 
	C345.495087,454.042877 338.094696,457.161804 330.738007,459.831299 
	C326.590149,461.336456 321.637817,460.457153 317.229919,461.455627 
	C311.754730,462.695862 306.473816,464.786133 301.097839,466.473694 
	C295.435974,468.250977 292.719147,466.254669 291.849823,460.496735 
	C291.602936,458.861359 289.563751,457.496552 288.346497,456.007690 
	C286.898224,457.433197 285.374359,458.791199 284.023468,460.303650 
	C282.735382,461.745697 281.881195,463.782837 280.328766,464.689606 
	C279.602814,465.113678 277.635864,463.563995 276.319214,462.764252 
	C275.628906,462.344971 274.978058,461.702393 274.566559,461.008240 
	C271.973083,456.633362 270.643524,459.288971 269.517029,461.459900 
	C266.787750,461.459900 264.294403,461.459900 261.425140,461.459900 
	C259.782593,458.201233 257.412598,457.811981 254.442123,460.926605 
	C253.945374,461.447510 252.775421,461.588257 251.960739,461.499390 
	C248.078873,461.075897 244.155319,460.767181 240.358307,459.918030 
	C237.336487,459.242249 234.949326,458.905579 232.487381,461.568542 
	C231.734604,462.382690 228.874680,461.102631 226.970337,461.030457 
	C223.639740,460.904327 220.292694,461.118530 216.969727,460.912781 
	C213.957855,460.726318 210.968857,460.170105 207.575668,459.725250 
	C205.681885,462.644012 203.313004,462.141541 199.483139,460.602509 
	C194.167252,458.466309 187.850845,458.860931 182.476379,456.819733 
	C174.564590,453.814972 167.275391,449.198273 159.417343,446.018585 
	C144.793930,440.101410 135.467957,427.157379 122.564270,419.008270 
	C119.656052,417.171631 117.033958,414.881927 114.146591,412.478516 
z"/>
<path fill="#000000" opacity="1.000000" stroke="none" 
	d="
M193.104950,492.879517 
	C192.690445,492.510925 192.462540,491.948029 192.234634,491.385162 
	C192.571091,491.531799 192.907547,491.678467 193.434204,492.043396 
	C193.513458,492.402863 193.402496,492.544037 193.104950,492.879517 
z"/>
</svg>