<svg version="1.1" id="Layer_1" xmlns="http://www.w3.org/2000/svg" xmlns:xlink="http://www.w3.org/1999/xlink" x="0px" y="0px"
	 width="100%" viewBox="0 0 2000 2250" enable-background="new 0 0 2000 2250" xml:space="preserve">
<path fill="#000000" opacity="1.000000" stroke="none" 
	d="
M2001.393066,1107.542725 
	C2002.000000,1489.254028 2002.000000,1870.508179 2002.000000,2251.762207 
	C2001.745972,2251.841309 2001.492065,2251.989990 2001.238037,2251.989990 
	C1335.043213,2251.999756 668.848450,2252.000000 2.000000,2252.000000 
	C2.000000,1901.958496 2.000000,1551.916504 2.000000,1200.937256 
	C5.238691,1197.575073 7.540833,1200.051392 10.062284,1201.512939 
	C21.524511,1208.156616 32.093407,1205.574341 38.901131,1194.101196 
	C45.373863,1183.192749 52.611546,1172.811157 60.001358,1162.536133 
	C66.450081,1153.569458 69.403618,1152.798584 79.287300,1157.882812 
	C90.251350,1163.522949 101.669449,1168.221191 112.423920,1174.301636 
	C118.188301,1177.560669 123.052864,1181.813721 125.086426,1187.920654 
	C128.856445,1199.242310 134.118484,1210.695312 134.096680,1222.493164 
	C134.057755,1243.551514 139.862518,1263.340698 144.258133,1283.446533 
	C147.108124,1296.482666 149.615311,1309.555298 151.804382,1322.701294 
	C154.590225,1339.430908 149.978027,1353.571289 137.176392,1365.018311 
	C129.949768,1371.480225 129.949142,1373.919067 136.378357,1381.677246 
	C144.695160,1391.713257 146.909042,1404.155396 147.509064,1416.212036 
	C148.034775,1426.775757 138.198441,1434.139771 133.930252,1443.461670 
	C130.447571,1451.067627 124.524727,1456.334351 115.412155,1456.687500 
	C110.466095,1456.879150 107.827744,1460.288574 105.551994,1464.170654 
	C100.763229,1472.339478 94.377853,1479.074951 86.796036,1484.703857 
	C80.787666,1489.164551 76.200439,1494.758911 73.033554,1501.561279 
	C68.459892,1511.385376 62.116074,1519.920044 53.512638,1526.544800 
	C47.809109,1530.936768 46.100845,1536.238647 47.463837,1543.221313 
	C49.930138,1555.856323 47.762264,1567.045166 36.500408,1575.174194 
	C33.548843,1577.304810 30.261972,1580.551270 32.460964,1584.388184 
	C34.993324,1588.806885 39.381836,1586.942993 43.175522,1585.442505 
	C54.845551,1580.826904 56.593475,1581.659790 58.717777,1594.326416 
	C60.050171,1602.271118 64.940308,1608.209106 68.858734,1614.741333 
	C75.557556,1625.908569 75.320351,1628.261719 66.100677,1636.875488 
	C62.171520,1640.546143 59.215042,1645.007935 55.656940,1648.974487 
	C51.634739,1653.458252 47.899361,1658.314453 40.896626,1657.805542 
	C40.252022,1657.758423 39.581268,1658.026489 38.963192,1658.270020 
	C34.986263,1659.837769 32.350525,1662.652954 31.215141,1666.791016 
	C30.827927,1668.202271 31.212128,1669.594238 32.540482,1670.196899 
	C36.643688,1672.057861 41.208790,1671.277344 43.689877,1668.296265 
	C51.276005,1659.181030 62.077152,1655.335205 71.804886,1649.737183 
	C81.433098,1644.196533 84.944183,1644.618164 93.009560,1652.443726 
	C98.065430,1657.349487 103.425339,1661.714722 109.492432,1665.326172 
	C118.536278,1670.709229 125.781502,1678.057739 131.075089,1687.141846 
	C138.925690,1700.613892 149.065750,1711.893677 161.940659,1720.716309 
	C164.689941,1722.600220 167.260803,1724.730347 169.652786,1727.065918 
	C179.523941,1736.703857 179.974930,1742.010254 171.828140,1752.894531 
	C171.428940,1753.427856 170.942245,1753.903931 170.598236,1754.469971 
	C167.919418,1758.877441 162.538498,1763.931152 167.545349,1768.506592 
	C172.643127,1773.165283 176.090942,1766.335205 179.781143,1763.535400 
	C181.899139,1761.928467 183.709595,1759.844849 186.271561,1758.948364 
	C190.660141,1757.413086 195.023621,1757.084106 197.579758,1761.929810 
	C200.144470,1766.791870 198.049072,1770.297363 193.399567,1772.408081 
	C187.794708,1774.952759 183.437759,1779.004395 179.782700,1783.007446 
	C196.432693,1785.825317 211.387711,1776.017700 227.889801,1775.096802 
	C232.842148,1774.820435 233.342896,1771.696899 232.817810,1767.321777 
	C231.420532,1755.679932 232.407028,1753.729370 243.726654,1751.507935 
	C271.281342,1746.100464 299.189453,1744.606689 327.225433,1745.721436 
	C332.875977,1745.946167 337.745789,1748.456787 340.250214,1753.697144 
	C343.183624,1759.835327 346.796906,1758.820068 351.451508,1755.949463 
	C378.434601,1739.309570 393.299591,1740.961914 416.601868,1769.137207 
	C431.805756,1787.520630 451.219543,1801.299316 468.414185,1817.494995 
	C483.421173,1831.630371 498.444122,1845.732910 513.962952,1859.311035 
	C534.651306,1877.411987 558.096313,1891.469604 582.125427,1904.334229 
	C592.863708,1910.083374 605.878052,1910.569702 617.935608,1913.100586 
	C638.685364,1917.455811 650.665771,1929.245361 654.581787,1950.197021 
	C655.877502,1957.129639 658.933716,1962.675293 664.012634,1967.322754 
	C669.541138,1972.381470 673.406494,1978.430542 675.672241,1985.643066 
	C679.448792,1997.665161 678.097778,2000.343994 665.126587,2004.353760 
	C670.209045,2006.161743 675.104675,2007.039429 680.158936,2007.616821 
	C692.035339,2008.973633 695.079163,2013.282593 693.045959,2025.002075 
	C689.472534,2045.600586 689.472534,2045.600586 710.782715,2047.501709 
	C720.638733,2048.380859 724.143738,2052.665039 720.703308,2062.244385 
	C716.155762,2074.906006 716.102783,2087.775146 716.828857,2100.738525 
	C717.635620,2115.144287 729.713074,2121.820801 742.469055,2114.910889 
	C755.997925,2107.582275 768.442017,2098.716309 778.403381,2086.711426 
	C789.039185,2073.894287 785.715942,2061.101074 770.018433,2055.531006 
	C761.799255,2052.614746 753.968262,2048.961914 746.816528,2043.986328 
	C739.221741,2038.702393 737.823120,2032.694336 744.183289,2026.593384 
	C750.157349,2020.862793 751.955078,2014.586304 751.457153,2006.899292 
	C750.907837,1998.419434 754.862366,1994.275513 763.455078,1992.995117 
	C774.162964,1991.399292 774.759644,1989.586792 770.534363,1979.922852 
	C768.796021,1975.946899 766.718384,1972.148315 764.714294,1968.306641 
	C763.327087,1965.647583 761.772461,1962.640869 764.165039,1959.929688 
	C766.367737,1957.433960 770.155823,1956.868042 772.496460,1958.461060 
	C784.130310,1966.379150 797.792419,1965.701904 810.684570,1968.328979 
	C816.245178,1969.462158 820.120117,1973.103882 822.387207,1978.336792 
	C828.033325,1991.369507 837.196899,1999.478027 852.077881,1999.609131 
	C857.822998,1999.659668 859.816223,2003.801392 861.845337,2008.198364 
	C864.739258,2014.469238 868.956238,2015.762695 874.385559,2010.879517 
	C883.475037,2002.703979 894.137573,1999.748413 906.340149,1998.890991 
	C922.550537,1997.751831 938.541748,1993.241333 954.946777,1997.401489 
	C958.820496,1998.383667 962.886047,1998.824463 966.456116,2000.637939 
	C983.044678,2009.064941 1000.930542,2012.713745 1019.103210,2015.590332 
	C1031.023193,2017.477173 1041.509399,2021.699707 1046.814087,2034.065674 
	C1050.297974,2042.187378 1057.428101,2042.329834 1064.694458,2040.244995 
	C1070.450806,2038.593750 1075.895630,2035.910278 1081.744385,2034.519775 
	C1091.470459,2032.207520 1095.335205,2033.862061 1098.475586,2043.430664 
	C1101.625854,2053.029541 1107.453735,2059.522461 1116.652344,2063.264648 
	C1125.865479,2067.012939 1133.609985,2062.970459 1135.123901,2053.131836 
	C1136.579834,2043.669556 1138.173950,2034.506226 1132.381104,2025.148438 
	C1127.004517,2016.462891 1132.144287,2007.651245 1142.357666,2007.825195 
	C1155.299316,2008.045532 1166.147461,2004.249390 1177.009888,1997.478516 
	C1189.366699,1989.775757 1204.225098,1994.008179 1214.364502,2006.294922 
	C1217.582275,2010.194580 1219.747070,2014.679199 1221.733032,2019.292847 
	C1224.777710,2026.365356 1228.438110,2033.099487 1233.772095,2038.752686 
	C1236.949341,2042.120239 1240.785278,2044.033447 1245.449097,2042.286011 
	C1250.626343,2040.345947 1251.861328,2035.883179 1251.871948,2030.944458 
	C1251.880737,2026.873047 1250.220337,2023.165405 1249.070801,2019.337280 
	C1243.564087,2001.000610 1250.323486,1989.507568 1269.125854,1985.531860 
	C1273.857910,1984.531250 1277.807739,1982.839111 1281.205078,1979.203735 
	C1299.902588,1959.196289 1322.290039,1945.316406 1348.328613,1936.313110 
	C1367.671143,1929.625000 1386.999268,1923.192139 1405.069946,1912.194824 
	C1424.872803,1900.143311 1446.572632,1888.583862 1472.033203,1894.861206 
	C1477.376099,1896.178589 1483.162109,1894.315186 1483.925293,1888.543579 
	C1485.794678,1874.405151 1497.443115,1869.092773 1506.928833,1862.721191 
	C1520.447754,1853.640747 1534.518677,1845.335938 1547.978149,1836.088501 
	C1555.405884,1830.985229 1562.924072,1826.041748 1569.459961,1819.811279 
	C1574.108032,1815.380371 1579.250854,1811.357178 1585.153442,1809.297729 
	C1598.987183,1804.470581 1610.389160,1795.832886 1621.818604,1787.249878 
	C1628.804688,1782.003784 1635.432007,1780.983887 1642.986938,1785.651733 
	C1646.953247,1788.102295 1651.423584,1790.739624 1655.976074,1787.360840 
	C1660.602783,1783.926758 1659.144043,1778.856445 1657.801758,1774.444946 
	C1655.644409,1767.354248 1658.041504,1761.869263 1661.661255,1755.763428 
	C1670.603516,1740.679565 1685.229370,1731.526733 1697.319580,1719.748779 
	C1723.815308,1693.937012 1745.946289,1663.845337 1774.002075,1639.684326 
	C1799.320557,1617.880615 1816.810059,1591.466309 1831.570557,1561.677979 
	C1845.306274,1533.957642 1859.210327,1506.128540 1871.940430,1478.074463 
	C1887.443359,1443.909790 1906.034058,1410.922607 1917.202271,1374.819092 
	C1921.922485,1359.559814 1925.001709,1343.841553 1930.455811,1328.769043 
	C1934.579712,1317.372437 1937.698975,1315.715210 1948.925903,1320.874146 
	C1953.768921,1323.099487 1958.756104,1324.985229 1963.527466,1327.390991 
	C1966.619629,1328.949951 1970.247314,1329.680664 1972.544556,1326.276123 
	C1974.765625,1322.984497 1971.803467,1320.656006 1969.784058,1318.614014 
	C1963.933105,1312.697266 1958.755981,1305.837524 1951.499268,1301.677979 
	C1942.956665,1296.781616 1941.940674,1290.266113 1943.881226,1281.416382 
	C1949.160034,1257.342041 1957.803955,1233.688232 1958.650757,1209.036499 
	C1959.513672,1183.909180 1966.828003,1160.484253 1972.895386,1136.696167 
	C1976.557495,1122.338623 1987.929565,1113.623169 2001.393066,1107.542725 
z"/>
<path fill="#3BECE6" opacity="1.000000" stroke="none" 
	d="
M2002.000000,1107.111694 
	C1999.802246,1107.067871 1997.558716,1108.062134 1996.838501,1109.635864 
	C1993.896851,1116.062500 1988.088989,1119.524902 1983.051758,1123.762451 
	C1979.082153,1127.101807 1976.583740,1130.999390 1975.363892,1136.167114 
	C1971.702393,1151.679321 1967.589966,1167.084717 1963.722412,1182.549072 
	C1963.082642,1185.107300 1962.382568,1187.755371 1962.401611,1190.357056 
	C1962.563965,1212.492188 1958.007324,1233.863159 1952.536499,1255.148315 
	C1949.811890,1265.748901 1948.303589,1276.668335 1945.426392,1287.220337 
	C1944.071167,1292.191040 1945.480225,1294.889893 1949.451782,1296.906738 
	C1959.516357,1302.017700 1966.007568,1311.132812 1973.966553,1318.593384 
	C1976.547241,1321.012573 1980.052490,1323.596802 1977.338013,1327.823853 
	C1975.089966,1331.324341 1967.114014,1333.475098 1963.848267,1330.996704 
	C1958.981201,1327.303345 1952.893188,1326.399902 1947.958984,1322.960815 
	C1945.878662,1321.510986 1943.062012,1320.910645 1940.485596,1320.431274 
	C1937.123535,1319.805786 1934.519043,1321.018921 1933.958618,1324.801147 
	C1931.906372,1338.652222 1924.340576,1350.996094 1923.044434,1365.091187 
	C1922.748779,1368.306396 1921.169922,1371.430176 1920.019287,1374.535767 
	C1909.618652,1402.604614 1898.470703,1430.377319 1883.811890,1456.528931 
	C1879.181641,1464.789429 1878.652832,1474.456055 1873.590942,1482.352173 
	C1868.542725,1490.227173 1864.711792,1498.711304 1860.698975,1507.099365 
	C1855.536499,1517.890625 1851.237549,1529.131226 1845.551270,1539.628174 
	C1833.535889,1561.807861 1824.269653,1585.469360 1809.747192,1606.294434 
	C1804.014282,1614.515137 1797.806519,1622.273560 1789.217285,1627.796387 
	C1787.562378,1628.860596 1786.189209,1630.389160 1784.767700,1631.786499 
	C1760.789917,1655.354248 1737.987549,1679.992065 1715.562866,1705.058594 
	C1705.340210,1716.485474 1695.015137,1728.643677 1681.001831,1736.248657 
	C1678.886108,1737.396729 1677.462158,1739.187012 1676.065674,1741.092896 
	C1672.532471,1745.914917 1669.061157,1750.802368 1665.219849,1755.373535 
	C1660.003174,1761.581787 1656.859375,1768.027222 1660.873291,1776.083862 
	C1661.020508,1776.379517 1661.133911,1776.704346 1661.195801,1777.028564 
	C1662.156616,1782.049561 1663.105225,1787.568848 1658.198608,1790.729004 
	C1653.422241,1793.805054 1648.392700,1792.847168 1643.444824,1789.293213 
	C1633.975098,1782.491089 1632.471436,1782.777710 1623.156372,1789.468750 
	C1611.575439,1797.787476 1600.551270,1806.831543 1586.532104,1811.322998 
	C1576.824585,1814.433105 1570.820190,1823.380859 1562.603394,1829.006714 
	C1547.260986,1839.511108 1532.545044,1851.005371 1516.076294,1859.731934 
	C1506.566528,1864.770874 1499.571167,1873.178223 1489.983032,1877.975098 
	C1487.409424,1879.262573 1487.874756,1881.807983 1487.654663,1884.104492 
	C1486.517212,1895.978638 1481.168457,1900.210938 1469.823486,1897.627686 
	C1455.610229,1894.391235 1442.264160,1896.398438 1429.412720,1903.010986 
	C1425.282349,1905.136230 1421.033447,1907.061401 1416.732178,1908.816650 
	C1410.266968,1911.454956 1404.342285,1914.621094 1398.721680,1919.068604 
	C1390.056519,1925.925415 1379.215698,1928.932129 1368.709229,1932.118164 
	C1357.042847,1935.655884 1345.363037,1939.470459 1334.026978,1943.633789 
	C1323.075684,1947.655762 1313.729126,1956.105591 1303.767456,1962.745239 
	C1295.555542,1968.218750 1286.691650,1972.820068 1281.971802,1982.445801 
	C1279.798584,1986.877930 1274.728882,1987.759766 1269.917236,1988.355225 
	C1253.230225,1990.419678 1245.745850,2002.337646 1251.010986,2018.235718 
	C1252.262451,2022.014038 1253.931641,2025.676880 1254.899658,2029.520996 
	C1256.332397,2035.209717 1253.080566,2042.473022 1248.441895,2044.898438 
	C1243.233154,2047.621948 1236.849976,2046.172363 1232.329102,2041.277100 
	C1226.381104,2034.836914 1221.860229,2027.517578 1218.918335,2019.265015 
	C1216.003174,2011.087769 1210.607666,2005.077148 1203.404785,2000.386230 
	C1194.637817,1994.676880 1185.983276,1994.934204 1177.236816,2000.228394 
	C1174.962891,2001.604980 1172.659790,2002.956299 1170.514771,2004.517822 
	C1163.704102,2009.476562 1156.232788,2011.420654 1147.881714,2009.936646 
	C1146.257812,2009.648193 1144.563477,2009.666260 1142.903320,2009.686401 
	C1133.972778,2009.794922 1129.283813,2017.286011 1134.524536,2024.454224 
	C1139.553711,2031.332886 1140.687378,2038.051514 1138.638184,2045.958496 
	C1137.986572,2048.472900 1138.541016,2051.275879 1138.280762,2053.920654 
	C1137.294312,2063.944824 1128.809326,2069.915527 1119.051636,2067.161865 
	C1112.577515,2065.334717 1106.706055,2061.582764 1101.872070,2057.326172 
	C1098.574829,2054.422852 1097.784302,2048.635986 1095.975464,2044.097412 
	C1095.240601,2042.253540 1094.802124,2040.293457 1094.186035,2038.400146 
	C1093.186279,2035.328369 1091.381348,2034.411865 1088.129883,2035.509277 
	C1081.848999,2037.629150 1075.215820,2038.854492 1069.168945,2041.468750 
	C1064.634766,2043.429077 1060.204834,2043.522827 1055.559448,2043.706421 
	C1050.148926,2043.920288 1046.157715,2041.472168 1044.746216,2036.597778 
	C1041.070923,2023.906250 1030.946289,2020.449463 1019.833191,2018.243408 
	C1012.356628,2016.759155 1004.739441,2015.932617 997.319214,2014.228149 
	C987.971985,2012.081177 978.807556,2009.454956 970.133667,2004.959473 
	C956.391785,1997.837769 941.469727,1997.315918 926.399109,1999.058594 
	C917.836243,2000.048706 909.310730,2001.902344 900.737366,2002.114746 
	C891.433167,2002.345459 883.716309,2005.547729 877.581360,2012.017212 
	C865.080139,2025.200562 863.045898,2017.745850 858.508728,2006.580200 
	C857.323364,2003.662964 857.424744,2001.118164 852.980591,2001.532349 
	C839.038818,2002.831421 825.365173,1994.810181 820.994385,1981.827271 
	C818.313049,1973.862671 813.499573,1970.671875 805.769836,1970.264893 
	C798.803040,1969.897949 792.150085,1967.056396 785.047791,1967.623657 
	C782.560486,1967.822266 780.264465,1966.797729 778.869446,1964.908569 
	C775.056519,1959.744629 769.877136,1960.193604 763.716492,1960.602539 
	C767.311951,1967.575806 770.442383,1974.103882 774.028442,1980.371216 
	C775.408447,1982.782959 776.193298,1985.192627 776.562927,1987.830322 
	C777.057129,1991.357300 775.719238,1993.554443 771.989319,1994.076050 
	C768.716797,1994.533447 765.477112,1995.235840 762.200317,1995.651367 
	C755.312256,1996.525024 754.606873,1997.210693 754.353394,2004.400146 
	C754.247742,2007.396118 754.194031,2010.406860 754.363831,2013.396851 
	C754.688538,2019.113770 753.376160,2023.235229 747.646118,2026.455933 
	C739.818176,2030.856079 740.133545,2036.724976 747.547302,2041.589478 
	C755.636902,2046.897217 764.215698,2051.217285 773.644470,2053.662842 
	C783.135010,2056.124268 790.050781,2069.816162 786.253540,2078.831543 
	C784.838684,2082.190918 783.037109,2085.279785 780.543884,2088.105225 
	C769.878784,2100.191406 757.276123,2109.802734 743.421753,2117.849854 
	C730.540344,2125.332031 716.218018,2118.592529 714.420105,2103.787598 
	C712.853088,2090.883301 712.465637,2077.881348 717.102417,2065.314453 
	C718.022461,2062.820801 718.918152,2060.294434 719.519470,2057.712158 
	C720.819641,2052.128418 719.683899,2050.619141 713.658203,2050.380371 
	C707.683044,2050.144043 701.652039,2050.634521 695.844055,2048.753662 
	C688.343140,2046.324829 686.759827,2043.962402 687.929443,2036.299438 
	C688.578735,2032.045898 689.698486,2027.863892 690.609558,2023.650391 
	C692.632935,2014.292358 689.697937,2010.477173 679.856140,2009.680298 
	C676.559021,2009.413330 673.154053,2010.325073 669.965332,2009.043213 
	C667.192261,2007.928589 664.528809,2006.541138 661.508484,2005.130127 
	C664.418457,2001.447632 668.867859,2001.069336 672.668762,1999.497925 
	C675.555664,1998.304443 676.769043,1996.556030 675.719055,1993.296509 
	C672.536621,1983.416382 669.208801,1973.751587 660.106934,1967.358887 
	C655.215149,1963.923340 653.008606,1958.692993 652.350830,1952.837524 
	C650.466919,1936.067871 636.490112,1915.948853 616.018250,1915.194336 
	C606.872253,1914.857300 597.796692,1911.748047 588.764771,1909.581665 
	C584.915710,1908.658447 580.908203,1907.505005 577.573853,1905.470825 
	C556.369995,1892.535889 534.283752,1880.690674 515.603333,1864.224243 
	C501.940430,1852.180664 487.458710,1840.990967 475.279388,1827.151245 
	C467.662842,1818.496216 458.474670,1810.975098 449.098511,1804.177002 
	C435.717041,1794.475220 425.082977,1782.208008 414.188904,1770.104614 
	C408.162140,1763.408569 401.727844,1757.277954 394.384827,1751.949341 
	C387.452850,1746.918823 380.333557,1746.672119 372.685547,1748.921875 
	C363.670715,1751.573853 355.767181,1756.570190 347.615326,1761.040283 
	C345.603119,1762.143677 343.444885,1762.980713 341.265381,1763.980835 
	C338.949127,1751.274780 334.654724,1747.749756 321.955994,1747.660522 
	C296.668335,1747.482666 271.493317,1749.179688 246.637527,1753.766235 
	C231.665405,1756.529053 231.781937,1757.136475 237.028107,1771.568481 
	C237.360611,1772.483154 237.549667,1773.450073 237.900818,1774.744385 
	C233.625320,1777.778687 228.810928,1778.590698 223.821930,1778.283081 
	C217.192291,1777.874146 211.304062,1779.803955 206.052734,1783.600952 
	C201.951309,1786.566772 198.047989,1787.744385 193.246384,1785.047363 
	C190.144806,1783.305176 186.758133,1784.452637 183.615662,1785.714233 
	C180.841400,1786.828125 178.092834,1788.006592 175.309128,1789.095703 
	C173.983887,1789.614258 172.723145,1789.645996 172.110352,1787.981567 
	C171.686798,1786.831177 172.321243,1785.985229 173.139877,1785.456665 
	C180.364227,1780.790527 184.532166,1772.145142 193.471069,1769.749146 
	C197.590042,1768.645020 197.614655,1766.386963 195.933655,1763.081421 
	C194.129196,1759.533203 191.718521,1758.004639 188.010040,1760.020264 
	C186.587616,1760.793335 185.418045,1762.075684 184.229416,1763.225464 
	C181.834503,1765.541748 179.429001,1767.855469 177.167572,1770.299438 
	C173.934067,1773.793945 170.421890,1775.857666 165.786713,1772.948242 
	C161.532227,1770.277832 161.036514,1766.726562 163.556900,1760.827393 
	C165.420059,1756.466675 168.210556,1752.827148 171.203873,1749.219238 
	C177.875229,1741.178589 177.711502,1740.650269 171.121826,1732.480225 
	C168.379150,1729.079590 165.396332,1726.143921 161.744888,1723.656372 
	C148.952499,1714.940918 138.198364,1704.217896 130.268906,1690.770874 
	C124.072090,1680.262085 115.854446,1671.700806 105.049919,1665.792236 
	C98.175591,1662.033203 93.438820,1655.858032 88.065994,1650.446899 
	C85.057419,1647.416992 82.569122,1646.607788 78.568893,1648.825073 
	C71.030846,1653.003052 63.757069,1657.709961 55.569881,1660.712158 
	C52.324940,1661.902100 51.087357,1665.507324 49.102795,1668.129150 
	C44.402580,1674.338501 37.671494,1674.417847 31.029913,1673.886841 
	C26.981529,1673.563232 25.754105,1670.513794 27.825899,1666.657227 
	C31.440756,1659.928345 34.737328,1652.506958 44.900204,1655.423340 
	C47.283051,1656.107056 48.176933,1653.600342 49.428749,1652.152222 
	C55.938911,1644.622681 61.701431,1636.382935 69.921043,1630.478027 
	C72.649200,1628.518066 72.708496,1626.298584 71.036835,1623.613525 
	C68.050278,1618.816406 65.322731,1613.851562 62.201088,1609.146484 
	C58.467918,1603.519775 55.721039,1597.816406 55.508289,1590.745850 
	C55.278484,1583.108276 52.951237,1582.212280 46.533939,1587.051758 
	C42.415432,1590.157837 38.090225,1590.923706 33.376701,1590.029785 
	C29.021399,1589.203857 27.387983,1586.369873 28.382713,1581.937866 
	C29.282202,1577.930298 30.949383,1573.941528 34.740200,1572.198364 
	C47.363125,1566.394043 46.937840,1554.996460 44.908981,1544.825806 
	C43.063850,1535.576172 44.684860,1529.822510 51.989017,1524.175903 
	C60.188293,1517.837158 66.964226,1509.841797 71.081581,1500.162476 
	C74.067894,1493.142090 78.974213,1487.843384 84.589165,1483.133545 
	C93.326630,1475.804688 101.503235,1468.068604 106.379395,1457.522095 
	C107.646927,1454.780518 109.333572,1453.252686 112.495544,1453.664917 
	C126.773697,1455.526489 131.206879,1444.594116 136.004547,1434.846313 
	C137.311981,1432.189819 138.325256,1429.867432 140.441635,1427.602295 
	C144.638412,1423.110474 146.827072,1417.814819 144.690948,1411.188477 
	C142.558807,1404.574341 141.057907,1397.720459 139.798950,1390.876343 
	C139.183777,1387.531982 137.117722,1385.638794 134.966431,1383.619995 
	C125.760002,1374.980835 126.049423,1370.692871 135.471527,1363.081421 
	C147.997757,1352.962646 152.017380,1339.021606 149.636337,1323.853516 
	C145.572098,1297.962646 139.249832,1272.487915 133.139542,1247.002930 
	C131.940781,1242.003052 132.432526,1237.072998 132.388123,1232.119507 
	C132.309998,1223.403809 131.872559,1214.836792 127.413040,1207.002563 
	C125.884224,1204.316772 126.076393,1201.220825 125.654732,1198.269897 
	C124.196922,1188.067017 119.361687,1180.268188 109.794479,1175.668091 
	C97.822563,1169.912109 85.831757,1164.176147 74.082077,1157.989136 
	C70.701355,1156.208984 68.725449,1156.864380 66.166443,1158.978516 
	C64.566879,1160.300049 63.415512,1161.817749 62.355244,1163.509644 
	C55.303436,1174.761719 46.812035,1185.036255 40.566769,1196.870728 
	C36.024338,1205.478394 25.069260,1209.437744 15.692264,1207.978394 
	C9.611857,1207.032227 7.701695,1201.287476 2.571228,1199.386963 
	C2.000000,1195.916626 2.000000,1191.833374 2.000000,1186.875000 
	C10.598340,1174.988647 19.040741,1163.951538 29.317291,1154.261353 
	C41.275482,1142.985474 45.277313,1129.370239 40.668976,1112.463135 
	C30.161364,1073.912598 35.470016,1035.895996 47.478111,998.480042 
	C48.819420,994.300720 51.030109,990.588806 54.076218,987.405762 
	C77.020638,963.429626 83.958961,933.144897 87.224358,901.656189 
	C88.076088,893.442871 90.715897,886.144958 93.794205,878.793030 
	C99.322723,865.589233 105.523636,852.676697 109.472206,838.821655 
	C111.757919,830.801453 115.377831,823.252502 120.705048,816.659058 
	C122.804276,814.060791 124.792549,811.290405 125.945633,808.177490 
	C134.644257,784.695129 148.738525,763.871765 158.869583,741.101440 
	C160.636627,737.129944 162.814728,733.331543 165.341507,729.851196 
	C173.710342,718.324158 179.199066,705.659729 181.737869,691.641357 
	C182.990509,684.724609 185.422440,678.290039 189.425125,672.320190 
	C192.864166,667.190979 193.407608,661.261963 192.182724,655.021423 
	C190.315689,645.509277 187.276703,636.347046 184.770432,627.024170 
	C180.292343,610.366638 181.094574,594.534546 186.479340,577.322205 
	C198.274292,539.619934 228.036880,529.416687 261.180389,523.777161 
	C279.234863,520.705200 293.104187,513.488892 305.019226,499.145538 
	C327.133118,472.524719 349.101807,445.718170 372.819580,420.446716 
	C382.438293,410.197906 395.140350,403.609894 404.491364,393.002686 
	C409.988464,386.767120 415.205505,380.070465 421.279633,374.568359 
	C446.068420,352.114014 466.888855,325.071564 496.862701,308.550568 
	C503.505768,304.889069 508.409821,299.546295 511.024902,292.341400 
	C514.884033,281.708923 519.448364,271.347290 522.074890,260.248291 
	C523.665039,253.528732 525.473816,246.448761 533.147339,243.490784 
	C535.682556,242.513519 536.285706,240.559113 536.244934,237.903198 
	C536.111145,229.194244 539.920837,221.857742 545.269287,214.426620 
	C547.414673,211.904205 550.695557,211.823975 551.812256,208.431366 
	C546.887695,205.116730 543.377686,210.657776 538.473145,210.225159 
	C533.825500,203.102005 535.903076,197.422928 542.072144,193.749512 
	C548.394714,189.984741 555.977356,190.103256 560.091736,196.384308 
	C565.022156,203.911148 570.300232,203.616257 577.779846,201.877716 
	C598.541931,197.051834 618.804077,201.117645 638.705444,207.164139 
	C647.445801,209.819641 655.745728,209.540894 664.028259,205.877853 
	C693.450378,192.865707 724.423889,185.099503 755.792664,178.613571 
	C770.179810,175.638840 784.245239,171.539520 797.647156,165.378372 
	C809.338074,160.003769 822.108032,159.014267 834.505127,156.621445 
	C843.587524,154.868393 851.617249,151.521912 858.526855,145.254639 
	C865.634583,138.807632 873.631653,136.081100 883.377197,139.377197 
	C889.830627,141.559814 896.671204,139.653748 903.204041,138.850418 
	C922.822327,136.438080 942.419312,136.931854 962.042786,138.217438 
	C965.077148,138.416229 967.974854,138.332901 970.919983,137.476868 
	C1008.509827,126.550926 1045.970337,129.958694 1083.359985,138.634995 
	C1098.638428,142.180359 1114.148560,144.198349 1129.755127,145.232956 
	C1156.624146,147.014206 1183.568481,147.952469 1209.943970,154.125229 
	C1210.917847,154.353119 1211.922241,154.750854 1212.884766,154.664139 
	C1233.180054,152.835709 1251.088501,162.351822 1270.078613,166.694626 
	C1275.283691,167.884949 1280.431519,169.232224 1285.810791,169.346268 
	C1289.491821,169.424316 1293.329590,169.523117 1296.620361,171.062683 
	C1312.075806,178.293579 1328.028198,182.873627 1345.093506,185.314117 
	C1355.172974,186.755569 1363.938354,194.752502 1374.160767,198.042969 
	C1381.466064,200.394455 1388.709717,202.442703 1396.358032,203.645660 
	C1411.629028,206.047577 1424.993652,212.772629 1438.400635,220.869217 
	C1461.950928,235.091431 1483.873291,252.343353 1509.982910,262.132050 
	C1515.349243,264.143982 1520.393066,266.628754 1524.757324,270.333801 
	C1539.079102,282.491974 1555.658691,291.070099 1571.673096,300.629669 
	C1587.109619,309.844330 1601.389648,320.889221 1614.285645,333.529633 
	C1619.780396,338.915527 1625.358398,344.119354 1632.077393,347.972076 
	C1634.099731,349.131653 1636.472046,350.206848 1637.567139,352.220459 
	C1646.807495,369.212189 1664.519043,376.385468 1678.615601,387.702057 
	C1685.881226,393.534698 1693.773560,398.583862 1700.229492,405.408325 
	C1707.806030,413.417236 1715.464233,421.196350 1726.521851,424.581635 
	C1730.662720,425.849335 1733.842529,429.124878 1736.953125,432.174805 
	C1740.284668,435.441254 1743.372925,438.982758 1746.903320,442.013275 
	C1770.647583,462.395386 1786.921265,487.215454 1798.321045,516.713989 
	C1807.589111,540.696350 1821.931763,562.675842 1835.900757,584.709473 
	C1854.730103,614.409607 1871.027466,645.949463 1883.254150,679.201599 
	C1893.823242,707.946167 1906.063721,736.039551 1915.875122,765.088257 
	C1922.917847,785.939758 1926.452271,807.781006 1934.536377,828.310364 
	C1936.743896,833.916382 1938.685303,839.535217 1942.776245,844.147034 
	C1949.655640,851.902161 1951.809692,861.161560 1950.361572,871.166321 
	C1949.390625,877.875610 1949.241333,884.556030 1950.829346,891.019897 
	C1954.817993,907.254822 1954.276733,924.116638 1958.145264,940.359314 
	C1960.786621,951.450256 1960.942749,962.794739 1960.720337,974.152893 
	C1960.393921,990.812805 1966.018677,1004.993408 1976.387695,1018.293518 
	C1984.716553,1028.976685 1995.505493,1037.928345 2001.482544,1051.396973 
	C2002.000000,1057.400024 2002.000000,1062.800049 2002.000000,1069.100098 
	C1998.084106,1076.802612 2000.215820,1083.860352 2001.559937,1091.433105 
	C2002.000000,1096.741089 2002.000000,1101.482300 2002.000000,1107.111694 
z"/>
<path fill="#000000" opacity="1.000000" stroke="none" 
	d="
M2002.000000,1051.062744 
	C2000.721680,1053.479370 1999.667480,1052.713745 1999.077148,1051.461060 
	C1993.010742,1038.586426 1981.810303,1029.675293 1973.260864,1018.747437 
	C1964.446045,1007.480652 1958.562500,995.610840 1958.569824,981.746155 
	C1958.579956,962.667603 1955.477905,944.168579 1952.673828,925.419861 
	C1950.477417,910.734192 1948.372314,895.958618 1946.488647,881.190002 
	C1946.085083,878.024902 1947.125244,874.636902 1947.716064,871.390808 
	C1949.571289,861.200134 1947.270508,852.080261 1940.012451,844.724670 
	C1936.321533,840.984070 1934.366211,836.680969 1932.735352,831.919434 
	C1927.248169,815.898010 1923.023560,799.520447 1918.387085,783.249390 
	C1912.214600,761.587219 1905.164185,740.177490 1895.765503,719.580200 
	C1890.680786,708.437256 1886.375488,696.851868 1882.335571,685.313660 
	C1875.609009,666.101501 1867.780029,647.531128 1857.480469,629.992371 
	C1856.640137,628.561340 1855.749268,627.139526 1855.098999,625.620422 
	C1846.568115,605.688538 1834.498291,587.878662 1822.995972,569.597839 
	C1808.188354,546.063782 1795.361938,521.233093 1785.847656,494.923340 
	C1782.289307,485.083740 1777.157104,476.403107 1769.626465,468.978760 
	C1758.725952,458.232178 1748.212158,447.092621 1737.566040,436.089081 
	C1731.900635,430.233429 1725.378296,425.704956 1717.385010,423.852020 
	C1713.494141,422.950073 1710.952637,420.521332 1708.431274,417.875763 
	C1696.228638,405.071777 1683.107422,393.487579 1668.230713,383.693756 
	C1661.091675,378.993927 1654.748535,372.975952 1647.134399,368.799683 
	C1643.526123,366.820679 1640.104492,363.901489 1639.212158,360.155182 
	C1637.871582,354.527527 1633.937134,352.279388 1629.706055,349.659363 
	C1622.901367,345.445801 1616.563843,340.566864 1611.156860,334.611694 
	C1599.867432,322.177399 1585.280884,313.801727 1572.343994,303.409546 
	C1568.228271,300.103485 1562.392822,298.556488 1557.504639,295.754822 
	C1544.198730,288.128693 1531.493042,279.676483 1519.740723,269.844421 
	C1516.527954,267.156616 1512.768188,265.933655 1509.022583,264.761932 
	C1494.497803,260.218109 1482.195801,251.954163 1470.164062,242.929916 
	C1464.942383,239.013489 1458.681030,236.427994 1452.749878,233.528366 
	C1446.755005,230.597565 1441.271973,227.175049 1436.043335,222.863708 
	C1423.710571,212.694229 1409.021851,207.426056 1393.197876,205.818344 
	C1388.852905,205.376892 1384.533081,205.088135 1380.600830,203.342468 
	C1370.033691,198.651306 1358.389282,196.415573 1348.999634,188.954010 
	C1345.910034,186.498779 1341.676392,186.227417 1337.559570,186.276489 
	C1324.932373,186.427063 1313.234131,182.939255 1302.707642,176.045853 
	C1298.575439,173.339828 1294.102539,172.797668 1289.542969,172.377823 
	C1273.345337,170.886459 1257.582031,167.590088 1242.683350,160.952362 
	C1238.611938,159.138443 1234.648926,158.019119 1230.211060,158.310394 
	C1219.118652,159.038422 1208.300659,157.505325 1197.823730,153.840363 
	C1192.379272,151.935791 1186.828369,151.424026 1181.133789,151.662872 
	C1171.457397,152.068756 1161.935547,150.758072 1152.457153,148.998917 
	C1151.155884,148.757416 1149.820679,148.278656 1148.543579,148.390991 
	C1130.487183,149.979446 1112.886841,145.690048 1095.066528,144.284225 
	C1092.773438,144.103317 1090.447266,143.636063 1088.260742,142.921097 
	C1069.480103,136.780106 1050.217529,133.838181 1030.478027,134.370987 
	C1015.544067,134.774109 1000.541504,132.968826 985.679016,135.694397 
	C983.720703,136.053528 981.455994,135.994675 979.883057,136.994522 
	C971.050903,142.608658 961.534302,140.984604 951.995605,140.251053 
	C936.387329,139.050720 920.807251,139.672913 905.262939,141.520401 
	C899.707703,142.180664 893.989014,140.915421 888.559448,143.464874 
	C886.421387,144.468842 884.083984,143.035385 881.882080,142.188095 
	C872.948059,138.750443 866.261536,140.430618 859.787842,147.578430 
	C854.986450,152.879898 848.838806,156.635468 842.128723,157.819138 
	C821.495361,161.458862 801.285400,166.100128 781.884277,174.356857 
	C767.474915,180.489227 751.769287,182.583145 736.544434,185.673767 
	C711.365662,190.785034 687.454773,199.382370 663.836731,208.991623 
	C655.678162,212.311035 648.138184,212.904068 639.693237,210.216187 
	C629.916260,207.104340 619.871277,204.443542 609.741882,202.931107 
	C597.545715,201.110107 585.232300,202.662918 573.321960,205.740829 
	C565.230164,207.831940 565.359070,208.330811 561.398743,200.747040 
	C558.460083,195.119812 551.038269,192.161774 545.139893,194.267044 
	C539.318787,196.344742 537.299805,201.410339 539.548096,210.365509 
	C542.325562,211.024704 544.264832,211.826553 546.500732,213.457169 
	C544.704895,218.911240 542.897217,224.114685 540.179749,228.789185 
	C537.086426,234.110153 536.211182,238.637039 542.590820,242.386887 
	C541.073975,243.370270 540.300659,244.305801 539.518555,244.313202 
	C528.679810,244.415848 526.030396,252.475098 524.508057,260.634583 
	C522.103271,273.523621 516.199768,285.102386 511.941284,297.287567 
	C509.995392,302.855560 505.777039,306.893066 500.597534,309.415680 
	C484.165344,317.418884 470.815277,329.236053 458.214844,342.199036 
	C450.358673,350.281219 443.006317,359.002319 432.969208,364.732697 
	C431.031311,365.839081 429.522980,367.869690 428.113037,369.702148 
	C415.477020,386.125214 401.093109,400.691833 384.581177,413.341797 
	C376.976379,419.167847 370.382019,426.469543 363.983948,433.682709 
	C349.002777,450.572296 333.714294,467.273499 319.992859,485.157776 
	C313.928009,493.062622 306.643188,499.703735 300.638092,507.601837 
	C291.941498,519.040039 279.364105,524.142395 265.248352,525.654114 
	C248.187225,527.481201 232.086731,532.822327 216.925064,540.506226 
	C206.394592,545.843079 198.495499,554.318237 194.281509,565.751160 
	C192.229614,571.318176 191.032181,577.188843 186.912735,581.966980 
	C184.819611,584.394775 184.729385,588.102661 184.308884,591.393250 
	C182.593094,604.819519 183.973938,617.967468 188.391907,630.701843 
	C191.340591,639.201172 193.749542,647.800964 195.338943,656.640015 
	C196.377289,662.414429 196.109344,668.587585 192.433029,672.866516 
	C185.486038,680.952087 184.511871,690.913818 182.138290,700.388916 
	C180.010880,708.881348 177.080948,716.713745 172.200943,724.078613 
	C166.183578,733.160156 159.528412,742.044189 157.358353,753.171448 
	C156.906647,755.487671 155.026566,757.116272 153.674896,759.008057 
	C146.299179,769.330933 140.461472,780.403442 136.246765,792.466064 
	C133.088730,801.504333 129.207428,810.372131 122.803406,817.836731 
	C117.968803,823.471924 114.796860,830.145874 112.771751,837.188416 
	C107.700760,854.823364 99.952454,871.371765 92.574715,888.065430 
	C90.489754,892.783203 89.026482,897.536011 89.769676,902.539429 
	C90.730347,909.007324 89.605286,915.047791 87.780357,921.168213 
	C83.342644,936.051514 79.795731,951.176270 73.305389,965.444214 
	C69.779739,973.194824 65.290703,980.264954 59.226242,985.778381 
	C51.785896,992.542786 49.033897,1001.166443 46.516537,1010.097107 
	C40.633839,1030.966919 37.652218,1052.192261 38.206333,1073.973877 
	C38.546066,1087.328247 39.441742,1100.574585 43.431206,1113.293701 
	C49.616955,1133.014893 41.724957,1147.614868 27.287804,1159.778198 
	C20.534233,1165.468262 15.641230,1172.495117 10.496253,1179.412354 
	C8.329960,1182.324951 6.871579,1185.838379 2.548152,1186.597534 
	C2.000000,791.414612 2.000000,396.829254 2.000000,2.243896 
	C2.251966,2.162598 2.503931,2.010030 2.755898,2.010026 
	C668.951965,1.999973 1335.148071,2.000000 2002.000000,2.000000 
	C2002.000000,351.374847 2002.000000,700.750122 2002.000000,1051.062744 
z"/>
<path fill="#000000" opacity="1.000000" stroke="none" 
	d="
M2002.000000,1091.083862 
	C1995.882324,1084.624634 1995.852417,1076.862549 2001.263306,1069.400879 
	C2002.000000,1076.722534 2002.000000,1083.445190 2002.000000,1091.083862 
z"/>
<path fill="#010101" opacity="1.000000" stroke="none" 
	d="
M404.122131,1597.965820 
	C393.488525,1586.852295 382.378387,1576.026245 373.973846,1563.399170 
	C361.309265,1544.371704 345.801636,1527.373779 335.156982,1506.869019 
	C326.899506,1490.962524 314.909485,1477.229980 306.378601,1461.381470 
	C297.259247,1444.439697 286.906006,1428.104858 280.945679,1409.609009 
	C280.641479,1408.665039 280.198242,1407.745361 279.692230,1406.889771 
	C259.137146,1372.138306 249.558426,1333.310791 238.221161,1295.142090 
	C235.484467,1285.928467 233.095398,1276.666870 229.037460,1267.830811 
	C226.892731,1263.160645 226.781204,1257.510864 226.007385,1252.265625 
	C223.589035,1235.872803 221.865555,1219.397705 216.540085,1203.512573 
	C213.682877,1194.989868 213.785721,1185.777222 213.768463,1176.841919 
	C213.719650,1151.575195 209.999268,1126.539917 209.736023,1101.227539 
	C209.593460,1087.519897 207.640030,1073.471191 206.709625,1059.611938 
	C205.848618,1046.786499 206.969025,1033.686646 208.561966,1020.874878 
	C210.419968,1005.931458 210.368378,991.010864 210.268402,976.062439 
	C210.169785,961.313477 212.994324,947.403809 217.349472,933.186829 
	C224.084702,911.200256 233.113922,890.214661 241.105331,868.774414 
	C244.704010,859.119324 251.595596,851.922974 256.963623,843.644470 
	C269.454407,824.381287 282.084564,805.259033 292.450348,784.709778 
	C303.223602,763.352783 319.584351,748.405762 342.322205,739.764160 
	C359.597534,733.198608 377.095825,726.835388 391.572632,714.201294 
	C412.301086,696.111450 424.517639,674.235168 427.862885,646.699524 
	C431.214600,619.110962 430.574646,591.574158 429.607422,563.984558 
	C429.187500,552.007263 425.862732,540.418701 423.342804,528.752319 
	C422.848602,526.464417 422.370209,524.241760 422.302582,521.892212 
	C421.932831,509.047333 428.538849,502.171387 441.349579,501.617279 
	C452.751343,501.124054 463.858307,502.601288 474.953400,505.083832 
	C485.341827,507.408295 495.882416,508.588654 506.604889,508.394043 
	C521.598694,508.121887 536.603821,508.160675 551.598877,508.397064 
	C558.773010,508.510132 565.372864,507.141449 571.803162,503.939819 
	C579.856873,499.929993 588.423950,497.396515 597.259888,495.484253 
	C607.720764,493.220306 617.792236,494.096954 627.513367,498.042023 
	C635.221558,501.170197 642.291687,501.517273 649.085266,496.147614 
	C653.747803,492.462311 659.065857,491.145355 664.976685,491.612671 
	C668.289124,491.874573 671.651428,491.846802 674.969666,491.625671 
	C682.383728,491.131653 688.655884,493.729462 694.296082,498.276733 
	C696.622681,500.152435 698.692444,502.599091 701.328491,503.796204 
	C715.289734,510.136353 723.361267,521.401428 728.846130,535.161621 
	C735.092407,550.831848 749.358643,558.528809 762.574585,566.464355 
	C768.370300,569.944397 776.870789,568.706848 783.961365,566.327820 
	C788.358582,564.852600 792.431946,562.399231 796.842224,560.980164 
	C800.756714,559.720764 802.837463,557.379761 804.049805,553.584290 
	C811.631287,529.847961 817.359009,505.609039 823.611328,481.515228 
	C824.363647,478.615997 826.167419,474.484802 822.243286,472.688049 
	C818.381531,470.919891 815.430908,473.804169 812.837585,476.619263 
	C807.173645,482.767395 805.020142,490.263245 803.686096,498.292084 
	C800.647217,516.581116 799.465149,535.233765 793.279419,552.926208 
	C792.732178,554.491394 792.370605,556.123230 791.792603,557.675659 
	C790.615540,560.836975 788.627991,561.230042 785.585693,559.869629 
	C777.738647,556.360596 770.601990,551.797729 763.824951,546.540405 
	C760.412720,543.893372 758.460815,540.721375 758.343811,536.456604 
	C758.238953,532.636902 756.839111,529.230286 754.655029,526.276245 
	C749.143005,518.821167 746.985107,510.100189 744.989014,501.349091 
	C743.045410,492.828125 745.417969,489.656219 754.167725,487.548950 
	C757.044312,486.856171 759.875732,485.725098 762.525879,484.392822 
	C768.743958,481.266907 770.886719,478.081360 769.228760,471.627075 
	C767.587036,465.235962 769.441345,459.702240 771.789917,454.352448 
	C776.055359,444.636017 780.528015,435.020508 784.431702,425.137909 
	C787.616699,417.074799 791.997498,409.586700 796.881104,402.410370 
	C801.609741,395.461884 806.475403,388.846222 815.998047,388.192261 
	C819.794373,387.931549 822.967590,385.459534 825.425598,382.892487 
	C837.646667,370.128998 849.227966,357.010529 854.474121,339.378906 
	C856.915710,331.173187 861.051086,323.419556 864.903259,315.702942 
	C867.655762,310.189117 868.708740,310.092377 874.088318,313.284790 
	C877.215332,315.140442 879.988098,317.587402 883.089600,319.492584 
	C889.370789,323.350983 895.004761,322.579926 900.156311,317.294708 
	C914.291565,302.792786 929.172729,289.026276 939.813354,271.384216 
	C945.355530,262.195343 954.689087,256.280151 965.129333,255.081848 
	C977.963684,253.608780 990.571594,250.328918 1003.591797,250.284668 
	C1017.610413,250.237045 1028.797119,254.464569 1035.366089,268.067352 
	C1040.171265,278.017761 1047.472534,286.287201 1055.421143,293.997070 
	C1071.347412,309.444733 1088.391235,309.036896 1103.641235,296.523773 
	C1113.392212,288.522766 1122.104126,279.268158 1131.648193,270.998352 
	C1140.187256,263.599304 1150.083252,259.400879 1161.724609,261.634033 
	C1171.206177,263.452820 1174.704346,267.431580 1173.249512,276.689362 
	C1172.596680,280.843353 1173.676880,282.857880 1176.538696,284.906525 
	C1196.587891,299.259033 1214.501465,316.179138 1232.814331,332.552460 
	C1257.793457,354.885956 1286.758545,369.916809 1317.668335,381.764160 
	C1328.469727,385.904175 1339.610474,386.311035 1350.915649,383.911407 
	C1367.105469,380.474915 1383.086304,381.164917 1399.079346,385.689911 
	C1404.065796,387.100830 1409.643921,386.304901 1414.920410,386.828369 
	C1431.809204,388.503967 1446.439331,396.662109 1461.769897,402.987854 
	C1481.281250,411.038757 1499.094482,422.092743 1515.558960,434.791199 
	C1528.277832,444.600739 1542.188477,452.215027 1555.249268,461.239380 
	C1578.552612,477.340851 1600.106445,495.627136 1617.102051,518.644653 
	C1621.071777,524.020813 1625.400513,528.907227 1630.530640,533.285767 
	C1637.357178,539.111877 1643.162842,546.004333 1648.739258,553.098572 
	C1656.749390,563.288940 1664.020996,574.049500 1672.791260,583.668640 
	C1676.347046,587.568481 1679.556763,592.044739 1681.864868,596.775452 
	C1691.246948,616.005737 1705.187134,632.307861 1715.916870,650.650146 
	C1719.434937,656.663940 1722.764771,662.788269 1726.144897,668.881897 
	C1728.395142,672.938416 1728.101562,677.236938 1726.969604,681.487244 
	C1725.175415,688.224487 1723.289062,694.940369 1721.278442,701.616089 
	C1718.291870,711.531860 1717.048340,721.705994 1716.315674,731.987854 
	C1715.068848,749.488281 1722.945435,762.865234 1735.618042,773.772095 
	C1745.763550,782.503784 1757.213745,789.377441 1769.945435,793.656860 
	C1781.394165,797.504944 1786.270508,805.508545 1786.310913,817.049561 
	C1786.334595,823.794312 1787.661865,830.326416 1790.112793,836.497681 
	C1795.537964,850.157959 1798.493042,864.477905 1802.080688,878.637756 
	C1802.895264,881.853088 1803.676147,885.123840 1804.952148,888.167969 
	C1816.489258,915.690063 1819.502441,945.281494 1825.897949,974.046875 
	C1829.673340,991.027710 1828.387451,1008.441223 1829.823364,1025.630737 
	C1831.701050,1048.109741 1835.445068,1070.572144 1834.164551,1093.166748 
	C1832.570679,1121.293579 1831.206421,1149.406128 1827.445068,1177.457153 
	C1823.584595,1206.248535 1815.656982,1233.918335 1809.159424,1262.007324 
	C1806.692383,1272.672241 1804.921021,1283.508301 1802.177734,1294.096680 
	C1798.342041,1308.901001 1793.159302,1323.247803 1785.110840,1336.395996 
	C1784.596680,1337.235840 1783.992920,1338.122070 1783.824829,1339.057495 
	C1780.641479,1356.784424 1772.749268,1373.073975 1768.202881,1390.381104 
	C1766.320190,1397.547974 1762.295776,1403.749146 1759.058350,1410.283081 
	C1744.887573,1438.883057 1730.034668,1467.159058 1716.544556,1496.072998 
	C1712.868164,1503.952637 1708.494019,1511.003662 1703.546265,1517.918823 
	C1695.961548,1528.518921 1692.191040,1541.380005 1684.238159,1551.657959 
	C1664.941162,1576.596802 1649.218018,1604.289551 1626.635132,1626.681519 
	C1623.271118,1630.017212 1620.786865,1633.941528 1618.139893,1637.740967 
	C1613.549561,1644.330322 1607.916138,1649.968506 1602.716309,1656.013672 
	C1588.400391,1672.656616 1570.065308,1684.678345 1554.004272,1699.295410 
	C1552.062256,1701.062744 1549.636963,1702.350464 1547.312134,1703.637329 
	C1530.904907,1712.719360 1516.766113,1724.833130 1502.544067,1736.859497 
	C1499.001587,1739.855103 1495.238403,1742.669434 1491.280884,1745.082031 
	C1465.970459,1760.510986 1442.068115,1778.093750 1417.005737,1793.852905 
	C1397.958130,1805.829834 1378.831299,1817.986328 1356.772217,1824.421753 
	C1349.221924,1826.624268 1342.012939,1830.511475 1335.178223,1834.530518 
	C1325.005615,1840.512329 1314.725708,1843.270386 1302.844971,1840.759155 
	C1296.787964,1839.479126 1290.397095,1840.108887 1284.075073,1841.599243 
	C1258.835205,1847.549438 1233.852539,1854.271484 1209.511353,1863.315186 
	C1198.244263,1867.501099 1186.643555,1865.961792 1175.068604,1864.405884 
	C1171.420044,1863.915527 1170.095581,1861.731079 1168.762451,1858.925293 
	C1165.771484,1852.630615 1166.435059,1845.938843 1166.312256,1839.305664 
	C1166.092163,1827.421509 1160.399536,1822.463013 1148.548828,1823.695679 
	C1140.302734,1824.553589 1135.260620,1830.706543 1136.831421,1838.794434 
	C1137.412842,1841.788574 1137.620728,1844.694458 1137.623169,1847.669800 
	C1137.624390,1849.361450 1137.376465,1851.373901 1135.271973,1851.410278 
	C1130.430542,1851.494263 1127.748291,1854.617310 1124.485352,1857.567627 
	C1119.877930,1861.733643 1111.389404,1860.089478 1106.950806,1853.817749 
	C1103.064697,1848.326904 1097.601929,1844.300903 1094.087524,1838.620117 
	C1092.771973,1836.493530 1090.920288,1835.158447 1088.786499,1834.318848 
	C1085.606567,1833.067871 1082.825317,1833.430420 1081.850342,1837.419189 
	C1081.381714,1839.335938 1081.224609,1841.372070 1080.482300,1843.170776 
	C1078.225586,1848.638306 1076.749756,1849.111938 1071.498291,1846.485840 
	C1069.722534,1845.597900 1067.951050,1844.700806 1066.173706,1843.815796 
	C1058.668457,1840.079224 1054.239624,1841.444702 1050.565796,1849.115479 
	C1049.521851,1851.294922 1048.920776,1853.402588 1045.483154,1853.957520 
	C1043.304565,1850.723267 1044.492920,1846.526855 1043.274902,1842.941406 
	C1040.124146,1833.666870 1033.387451,1831.548096 1025.744629,1837.754761 
	C1023.939575,1839.220581 1021.945923,1840.555176 1020.479919,1842.316895 
	C1016.912903,1846.603638 1012.427124,1846.526001 1007.701660,1845.400391 
	C998.988098,1843.324585 990.288025,1841.187622 981.615967,1838.945923 
	C978.358154,1838.103638 975.093933,1837.428467 971.749695,1837.703369 
	C962.971985,1838.425049 954.324280,1840.580444 945.613342,1836.098022 
	C941.761597,1834.115967 938.097656,1837.489014 935.483276,1840.712158 
	C930.567627,1846.772461 924.422058,1847.570801 917.519897,1844.968384 
	C907.172424,1841.066895 896.155701,1840.212280 885.447754,1838.001587 
	C880.389099,1836.957031 875.551147,1837.351196 870.716980,1841.429810 
	C864.377441,1846.778442 847.353271,1845.238159 840.516541,1839.798706 
	C837.615845,1837.490845 834.651428,1835.574219 831.058777,1834.188721 
	C830.531250,1834.983398 829.891357,1835.714355 829.506836,1836.561401 
	C824.256775,1848.125000 821.592834,1849.511108 808.884766,1847.694214 
	C806.317810,1847.327148 804.615173,1846.402588 803.569885,1843.958252 
	C801.928345,1840.119995 798.350159,1839.181763 795.272461,1840.892822 
	C789.666626,1844.009644 784.638428,1841.512817 779.156006,1841.160034 
	C760.131653,1839.936279 743.304993,1831.568481 725.561035,1826.252075 
	C710.512390,1821.743164 697.177185,1813.263672 682.819946,1807.114868 
	C670.908142,1802.013306 659.215759,1796.396973 647.458801,1790.938599 
	C645.051636,1789.821045 642.392578,1788.807251 640.530945,1787.031372 
	C633.223389,1780.061035 624.309143,1776.138550 615.064392,1772.688477 
	C613.208740,1771.995972 611.351807,1771.090332 609.769958,1769.913696 
	C589.808350,1755.069214 568.724548,1741.887329 550.535645,1724.479980 
	C528.722656,1703.604126 506.293976,1683.068359 478.684357,1669.579590 
	C469.196991,1664.944580 463.679810,1655.670044 455.289764,1649.731323 
	C451.507446,1647.054199 448.135101,1643.797974 444.194458,1640.230347 
	C446.699829,1637.114868 450.104492,1637.657837 453.317291,1638.421265 
	C480.406067,1644.857544 508.229950,1646.365479 535.684631,1646.469727 
	C578.620300,1646.632935 621.581177,1642.993652 663.374146,1631.910400 
	C684.036194,1626.431030 688.268433,1619.172974 689.244690,1597.666138 
	C691.901428,1539.140747 693.632507,1480.590698 695.460754,1422.036865 
	C696.623962,1384.784058 698.085510,1347.532471 699.405945,1310.280518 
	C700.773499,1271.696655 702.074890,1233.110596 703.456055,1194.528809 
	C704.801453,1156.943970 706.269043,1119.366455 707.487976,1081.775146 
	C708.026794,1065.158813 709.101624,1048.536621 709.204468,1031.886841 
	C709.216858,1029.884521 709.370178,1027.882202 709.925415,1025.948120 
	C710.390076,1024.329590 711.007629,1022.470032 712.755432,1022.146729 
	C714.581177,1021.809021 715.564392,1023.541382 716.407898,1024.946289 
	C718.141785,1027.834106 718.985596,1031.073853 719.961853,1034.259521 
	C750.131653,1132.704834 780.359131,1231.132690 810.500000,1329.586670 
	C839.666077,1424.856323 869.267029,1519.994385 897.735474,1615.474487 
	C901.597534,1628.427246 908.724915,1635.211182 921.787170,1637.091064 
	C938.293457,1639.466919 954.755920,1641.655029 971.509338,1641.176392 
	C1004.431946,1640.236084 1037.511719,1643.544556 1070.238892,1637.354126 
	C1074.504517,1636.547241 1078.686157,1635.515869 1082.866089,1634.353027 
	C1091.357056,1631.990601 1096.192383,1626.669922 1098.754272,1618.152466 
	C1114.112061,1567.092896 1129.363281,1516.001221 1144.706909,1464.937622 
	C1170.407104,1379.407349 1196.066040,1293.864624 1221.877441,1208.367676 
	C1237.190674,1157.644287 1252.331421,1106.868530 1267.553955,1056.117676 
	C1269.365234,1050.078735 1270.568115,1043.779053 1275.123535,1037.969238 
	C1276.937622,1036.957397 1278.102539,1036.892212 1280.031494,1037.700684 
	C1284.441040,1045.995972 1284.115723,1054.615723 1284.408325,1062.707031 
	C1285.502808,1092.985718 1287.585449,1123.205688 1289.109741,1153.454346 
	C1290.751099,1186.024658 1291.989502,1218.621094 1294.483032,1251.148682 
	C1295.576782,1265.417725 1296.088623,1279.759888 1296.595825,1294.028320 
	C1298.215698,1339.610474 1301.379883,1385.108032 1303.366089,1430.667847 
	C1305.598389,1481.868408 1309.115723,1533.018555 1311.276489,1584.236328 
	C1311.696411,1594.192017 1313.315308,1604.111084 1313.086670,1614.131714 
	C1312.877319,1623.302612 1317.572510,1629.153198 1325.682861,1632.653931 
	C1332.437256,1635.569214 1339.409424,1637.833374 1346.642944,1639.190430 
	C1365.337402,1642.697144 1384.154663,1644.538208 1403.211060,1645.197754 
	C1427.165039,1646.026978 1450.998413,1646.879761 1475.011719,1645.257446 
	C1507.287109,1643.076904 1539.428101,1640.358276 1571.250610,1634.447510 
	C1573.872314,1633.960571 1576.457886,1633.293823 1579.023804,1632.565796 
	C1597.732544,1627.257812 1602.119019,1621.051270 1600.811768,1601.606445 
	C1597.908447,1558.422607 1597.121948,1515.135132 1594.741211,1471.939331 
	C1591.920288,1420.756592 1591.015625,1369.489868 1587.360474,1318.347656 
	C1586.174805,1301.757935 1585.836670,1285.063354 1585.418823,1268.461182 
	C1584.447021,1229.840820 1581.982544,1191.293945 1580.633301,1152.697632 
	C1579.017334,1106.466797 1576.674194,1060.247314 1574.657104,1014.022339 
	C1572.712769,969.465332 1570.725830,924.908447 1568.729370,880.353271 
	C1566.703247,835.131531 1564.656616,789.911682 1562.697632,744.686096 
	C1561.386841,714.426636 1559.454102,684.197021 1558.887207,653.900635 
	C1558.599243,638.512390 1554.710449,633.664001 1539.965088,628.205811 
	C1516.203003,619.409973 1491.134155,617.962097 1466.328857,615.203003 
	C1413.599854,609.337891 1360.650635,607.624207 1307.672974,609.195984 
	C1270.742188,610.291626 1233.777832,612.297668 1197.455444,620.171875 
	C1190.598267,621.658569 1183.920898,623.668518 1177.229492,625.739624 
	C1161.083130,630.737244 1151.209595,640.516907 1146.015381,657.433838 
	C1108.159912,780.726013 1069.775146,903.856262 1031.625977,1027.058960 
	C1024.134644,1051.252441 1016.822021,1075.505615 1008.979431,1099.590942 
	C1008.257263,1101.808838 1007.685242,1104.098389 1006.600830,1106.166260 
	C1003.565674,1111.953003 1000.776245,1112.140015 997.379028,1106.804077 
	C996.119873,1104.826416 995.454102,1102.561890 994.670532,1100.364380 
	C958.518677,998.972107 922.509338,897.529114 886.459045,796.100769 
	C869.606079,748.684631 852.767883,701.262024 835.863647,653.863708 
	C831.712219,642.223572 824.101807,634.918030 812.978210,630.447144 
	C792.934509,622.390930 771.755554,619.691895 750.569641,617.193970 
	C691.925232,610.279541 633.049561,607.304688 574.038147,609.176941 
	C541.776489,610.200378 509.453217,611.855347 477.747650,618.946411 
	C475.471008,619.455627 473.179230,619.897766 470.911560,620.448914 
	C444.886871,626.773560 439.022156,633.919495 439.045624,660.565430 
	C439.089081,709.869568 435.579315,759.060730 434.566437,808.340393 
	C433.821198,844.598145 432.112549,880.864746 430.779358,917.123779 
	C428.626465,975.677795 426.411469,1034.224609 424.618713,1092.793457 
	C423.529175,1128.388306 422.182343,1163.989380 420.783356,1199.576538 
	C418.494751,1257.794067 416.578339,1316.017578 414.661438,1374.246338 
	C413.478729,1410.172119 412.053040,1446.096802 410.727661,1482.020508 
	C409.414520,1517.612305 408.043854,1553.204224 406.921082,1588.804688 
	C406.826080,1591.816284 406.625305,1594.824829 404.122131,1597.965820 
z"/>
<path fill="#FFFFFF" opacity="1.000000" stroke="none" 
	d="
M1276.594727,1037.561646 
	C1262.164673,1084.473877 1248.076294,1130.826294 1234.124390,1177.219971 
	C1212.334717,1249.675537 1190.671143,1322.168945 1168.892456,1394.627930 
	C1146.062744,1470.583252 1123.047852,1546.483521 1100.487549,1622.518921 
	C1098.521973,1629.143677 1094.948120,1632.709717 1089.175415,1635.203613 
	C1079.920410,1639.201416 1070.079468,1640.593994 1060.213501,1641.852905 
	C1045.036255,1643.789307 1029.789062,1644.492920 1014.490662,1644.340454 
	C993.512878,1644.131348 972.513428,1644.984131 951.562439,1643.594482 
	C938.688293,1642.740601 925.806519,1641.515259 913.278076,1638.134277 
	C905.112854,1635.930786 899.884033,1631.582397 897.179016,1622.586914 
	C874.911438,1548.535278 852.100098,1474.646973 829.418457,1400.719971 
	C808.195801,1331.548096 786.932251,1262.388916 765.682678,1193.225342 
	C749.112366,1139.292114 732.514587,1085.367310 716.038757,1031.405273 
	C715.361816,1029.188110 714.631592,1027.095337 712.787598,1023.951050 
	C712.384216,1032.372559 711.929443,1039.663330 711.704773,1046.961426 
	C710.978882,1070.543823 710.981995,1094.169922 709.484924,1117.701538 
	C707.946045,1141.889038 708.948608,1166.154663 706.454651,1190.302612 
	C705.500122,1199.545166 706.243469,1208.910156 705.824463,1218.236450 
	C704.735779,1242.468628 705.095947,1266.783447 703.447205,1290.967651 
	C701.843567,1314.491577 703.010498,1338.093506 700.463074,1361.574707 
	C699.461731,1370.805420 700.228271,1380.180664 699.814819,1389.506104 
	C698.740479,1413.738892 698.490417,1438.006714 697.625488,1462.250488 
	C696.477356,1494.430298 694.621765,1526.591431 693.945679,1558.778931 
	C693.624573,1574.064331 691.711731,1589.297485 692.407104,1604.580200 
	C692.947571,1616.458862 687.097900,1623.836426 677.221497,1629.219727 
	C663.500610,1636.698364 648.340149,1639.246460 633.312134,1641.339966 
	C609.700195,1644.629272 586.023132,1647.397705 562.115479,1648.552124 
	C522.805664,1650.450195 484.027344,1647.401245 444.656616,1639.764282 
	C438.803467,1636.365112 432.734467,1635.714600 427.455566,1633.083618 
	C424.493225,1631.607178 421.428131,1630.336060 418.473724,1628.844971 
	C406.599884,1622.852295 402.120239,1613.038696 403.571106,1599.297119 
	C403.703796,1586.507324 403.446716,1574.481445 404.457245,1562.562988 
	C406.478241,1538.726807 405.042267,1514.769043 407.547028,1490.953491 
	C408.484406,1482.040649 407.726135,1473.010986 408.170654,1464.014771 
	C409.269318,1441.781372 409.239136,1419.490112 410.447968,1397.264893 
	C411.818024,1372.075562 411.259521,1346.818604 413.566803,1321.663452 
	C414.385803,1312.734009 413.779907,1303.716309 414.179962,1294.722778 
	C415.258026,1270.486816 414.905243,1246.169189 416.552765,1221.981567 
	C418.155304,1198.454346 416.945587,1174.845215 419.550903,1151.366577 
	C420.502167,1142.793579 419.728455,1134.090454 420.145142,1125.427490 
	C421.230682,1102.859863 421.558441,1080.256958 422.362579,1057.674316 
	C423.154907,1035.422974 423.663666,1013.152405 424.626526,990.922485 
	C425.402985,972.996216 425.137970,955.008423 426.563934,937.163330 
	C428.363892,914.638855 426.988770,892.026367 429.527893,869.542297 
	C430.569763,860.316284 429.764618,850.935303 430.181030,841.608093 
	C431.263000,817.372375 430.852356,793.048645 432.569489,768.868774 
	C434.216766,745.673218 433.085236,722.412231 435.488647,699.246033 
	C436.686554,687.699707 436.141846,675.969849 436.324860,664.322083 
	C436.439423,657.028809 436.912659,649.764404 437.368500,642.492004 
	C437.853119,634.760559 441.453217,630.128601 447.422272,626.520935 
	C456.646240,620.946228 466.842377,617.966309 477.306610,615.845337 
	C501.406433,610.960632 525.780579,608.828552 550.329529,607.470215 
	C573.924011,606.164734 597.508240,605.672241 621.101746,605.763611 
	C654.627075,605.893372 688.038879,608.147888 721.424866,611.443665 
	C744.520264,613.723572 767.648987,615.475464 790.370911,620.355530 
	C801.396851,622.723572 812.249695,625.797913 822.168152,631.543335 
	C829.681335,635.895508 834.955017,641.853638 837.860168,650.117920 
	C849.202881,682.384888 860.678284,714.605225 872.121399,746.836853 
	C892.451233,804.100037 912.792786,861.359009 933.130615,918.619324 
	C950.245605,966.805847 967.346069,1014.997498 984.487488,1063.174561 
	C990.001343,1078.671265 995.624939,1094.129028 1002.004822,1111.844116 
	C1007.156738,1095.541016 1011.658569,1081.515015 1016.022278,1067.446167 
	C1031.755859,1016.720215 1047.462891,965.985962 1063.142212,915.243164 
	C1081.664185,855.300049 1100.124390,795.337891 1118.656128,735.397766 
	C1127.775146,705.902649 1137.018188,676.445740 1146.152588,646.955322 
	C1148.329590,639.926575 1152.689453,634.731873 1158.848145,630.886963 
	C1169.425659,624.283447 1181.135376,620.521484 1193.160278,617.918640 
	C1222.725586,611.518982 1252.722656,608.960022 1282.921265,607.480774 
	C1309.180664,606.194458 1335.428223,605.285400 1361.688843,605.776611 
	C1393.192139,606.365784 1424.627197,608.206482 1456.015137,611.428406 
	C1478.103638,613.695740 1500.215820,615.423828 1522.035889,619.739197 
	C1529.880371,621.290588 1537.471802,623.695312 1544.923218,626.463989 
	C1555.957642,630.564087 1562.079468,638.226501 1561.738159,650.563782 
	C1561.545166,657.533569 1562.093384,664.524658 1562.332642,671.505310 
	C1562.992798,690.760376 1563.296509,710.036499 1564.418823,729.264771 
	C1566.198608,759.760864 1567.111694,790.287842 1568.503662,820.794800 
	C1569.865234,850.638550 1571.139526,880.485291 1572.494019,910.328003 
	C1573.878418,940.837830 1575.113281,971.353271 1576.503662,1001.860291 
	C1577.863770,1031.704102 1579.153687,1061.549805 1580.489502,1091.393921 
	C1581.855103,1121.904175 1583.153564,1152.416626 1584.514282,1182.925659 
	C1585.845459,1212.770020 1587.149292,1242.615723 1588.489380,1272.459473 
	C1589.859375,1302.969482 1591.133545,1333.483398 1592.516357,1363.990845 
	C1593.869385,1393.834961 1595.139526,1423.681885 1596.488281,1453.525024 
	C1597.866943,1484.035034 1599.112427,1514.551514 1600.558472,1545.054321 
	C1601.610840,1567.250488 1602.644775,1589.454590 1603.575195,1611.657104 
	C1604.070801,1623.482178 1601.228516,1627.195923 1590.108398,1631.870605 
	C1580.563965,1635.882812 1570.514893,1638.204102 1560.338257,1639.668701 
	C1528.827026,1644.204224 1497.235107,1647.687622 1465.339600,1648.585938 
	C1454.079834,1648.902954 1442.762939,1650.189087 1431.520142,1649.540039 
	C1402.760742,1647.879761 1373.784058,1648.452637 1345.425049,1642.156860 
	C1337.001221,1640.286743 1328.675415,1638.068970 1321.012329,1633.871460 
	C1314.062988,1630.064941 1310.337769,1624.859131 1310.172974,1616.386108 
	C1309.798218,1597.136719 1308.882324,1577.882202 1307.583862,1558.670410 
	C1305.860352,1533.173584 1304.862427,1507.647217 1303.504639,1482.137085 
	C1302.146606,1456.625732 1300.835693,1431.113159 1299.505249,1405.600952 
	C1298.174683,1380.089111 1296.881104,1354.573975 1295.495605,1329.066406 
	C1294.127930,1303.888916 1292.913086,1278.703613 1291.514160,1253.530518 
	C1290.078003,1227.688232 1288.892944,1201.836060 1287.494995,1175.996460 
	C1286.132690,1150.818115 1284.960205,1125.628052 1283.477051,1100.461792 
	C1282.286743,1080.270020 1281.418457,1060.063232 1280.009033,1038.988525 
	C1278.113281,1036.282471 1278.088989,1034.182007 1278.876343,1031.766602 
	C1277.585083,1033.437012 1278.217163,1035.554443 1276.594727,1037.561646 
z"/>
<path fill="#082120" opacity="1.000000" stroke="none" 
	d="
M547.439209,213.482239 
	C544.403015,214.455093 541.981506,214.639664 540.216614,211.543243 
	C541.651489,205.805725 545.903015,205.720215 550.145081,205.403152 
	C553.605835,205.144470 554.542114,206.652359 554.610413,209.949020 
	C554.708557,214.685715 552.020691,212.750931 549.793518,212.438416 
	C549.222290,212.358246 548.575867,212.813660 547.439209,213.482239 
z"/>
<path fill="#0A2B2A" opacity="1.000000" stroke="none" 
	d="
M570.525757,215.428345 
	C574.118164,215.803329 577.035706,216.170013 580.892273,216.654709 
	C576.930298,221.368332 572.602295,220.664200 568.207336,219.825089 
	C566.789551,219.554398 565.440002,218.948410 565.764709,217.435410 
	C566.203735,215.390213 568.313721,215.776505 570.525757,215.428345 
z"/>
<path fill="#595959" opacity="1.000000" stroke="none" 
	d="
M1276.793335,1038.039062 
	C1275.350220,1034.995361 1277.313232,1032.787231 1278.604004,1030.335815 
	C1281.141846,1032.043213 1279.694824,1034.578979 1279.944336,1037.403809 
	C1279.003784,1038.060181 1278.199341,1038.017700 1276.793335,1038.039062 
z"/>
</svg>